<svg xmlns="http://www.w3.org/2000/svg" xmlns:xlink="http://www.w3.org/1999/xlink" width="1080" zoomAndPan="magnify" viewBox="0 0 810 809.999993" height="1080" preserveAspectRatio="xMidYMid meet" version="1.2"><g id="4070ffd15e"><path style=" stroke:none;fill-rule:nonzero;fill:#44d9d8;fill-opacity:1;" d="M 485.6875 291.519531 C 471.464844 281.09375 457.472656 269.117188 451.582031 252.296875 C 445.417969 234.625 447.355469 215.789062 453.558594 198.269531 C 459.332031 182.027344 472.667969 167.84375 489.371094 162.144531 C 498.75 158.929688 505.84375 157.765625 514.835938 157.765625 C 520.492188 157.765625 519.796875 157.804688 524.175781 158.65625 C 526.152344 159.046875 528.050781 159.585938 529.988281 160.167969 C 530.726562 160.363281 537.507812 163.113281 534.371094 161.679688 C 561.035156 173.734375 570.414062 201.136719 567.855469 230.246094 C 567.3125 236.484375 568.632812 225.980469 567.546875 232.144531 C 567.238281 234.003906 566.769531 235.863281 566.304688 237.6875 C 565.878906 239.46875 562.546875 248.617188 564.097656 245.089844 C 560.066406 254.429688 557.742188 257.144531 552.277344 262.609375 C 548.863281 266.058594 541.113281 271.132812 537.546875 272.605469 C 526.578125 277.140625 512.042969 276.367188 503.285156 285.125 C 491.773438 296.636719 496.851562 315.125 512.316406 319.351562 C 523.671875 322.488281 538.207031 317.914062 548.902344 313.769531 C 568.28125 306.289062 583.902344 293.769531 595.414062 276.484375 C 616.148438 245.28125 613.902344 204.042969 598.128906 171.488281 C 581.65625 137.457031 545.917969 116.140625 508.207031 118.503906 C 459.953125 121.527344 422.203125 155.054688 412.164062 202.144531 C 402.667969 246.601562 426.425781 318.265625 483.671875 307.335938 C 491.734375 305.785156 491.078125 295.476562 485.6875 291.519531 Z M 485.6875 291.519531 "/><path style=" stroke:none;fill-rule:nonzero;fill:#44d9d8;fill-opacity:1;" d="M 283.992188 342.023438 C 257.632812 331.714844 232.171875 324.351562 225.269531 295.085938 C 218.292969 265.554688 242.09375 244.933594 266.9375 237.609375 C 278.679688 234.160156 291.433594 234.3125 300.230469 238.421875 C 311.742188 243.808594 319.183594 256.210938 320.230469 270.707031 C 321.429688 287.683594 314.878906 303.652344 305.964844 317.722656 C 301.546875 324.660156 295.695312 330.511719 289.417969 335.785156 C 288.175781 336.828125 283.835938 339.621094 281.472656 341.753906 C 279.417969 343.417969 279.300781 343.574219 281.042969 342.140625 C 278.5625 343.960938 276.78125 345.667969 274.496094 347.488281 C 287.554688 352.914062 300.617188 358.300781 313.679688 363.726562 C 313.679688 363.613281 313.679688 363.496094 313.679688 363.378906 C 312.632812 367.214844 311.585938 371.09375 310.539062 374.929688 C 310.851562 374.425781 311.121094 373.960938 311.429688 373.457031 C 322.476562 355.085938 299.492188 328.960938 280.617188 342.644531 C 277.015625 345.277344 272.789062 347.796875 270.929688 352.140625 C 263.410156 369.734375 275.539062 391.59375 296.859375 385.859375 C 308.949219 382.601562 314.804688 375.007812 322.554688 368.882812 C 332.011719 361.363281 339.609375 351.246094 346.234375 341.25 C 360.886719 319.273438 369.105469 290.589844 366.082031 264.234375 C 362.941406 236.832031 348.5625 211.445312 323.679688 198.386719 C 302.476562 187.261719 277.480469 186.953125 254.6875 192.921875 C 205.621094 205.902344 172.328125 250.476562 179.691406 301.25 C 186.28125 346.441406 237.558594 389.386719 283.992188 372.796875 C 299.492188 367.253906 298.796875 347.796875 283.992188 342.023438 Z M 283.992188 342.023438 "/><path style=" stroke:none;fill-rule:nonzero;fill:#44d9d8;fill-opacity:1;" d="M 485.457031 300.4375 C 492.121094 287.492188 477.394531 270.746094 472.007812 259.15625 C 466.230469 246.753906 461.117188 233.617188 460.226562 220.207031 C 459.410156 208.230469 461.773438 196.601562 469.214844 187.84375 C 480.261719 174.820312 499.023438 168.113281 515.570312 166.5625 C 552.664062 163.113281 569.289062 194.585938 562.855469 228.035156 C 559.640625 244.777344 551.5 254.160156 537.972656 261.25 C 521.539062 269.855469 492.898438 265.476562 481.308594 284.273438 C 476.660156 291.871094 478.324219 301.910156 484.371094 308.148438 C 502.859375 327.140625 543.75 310.433594 563.398438 299.542969 C 586.886719 286.523438 601.769531 262.683594 606.148438 236.5625 C 610.839844 208.65625 606.578125 180.441406 588.980469 157.765625 C 573.050781 137.183594 547.390625 127.535156 521.890625 127.417969 C 472.78125 127.1875 426.039062 160.207031 424.179688 211.253906 C 423.402344 232.335938 430.960938 253.460938 440.652344 271.871094 C 445.1875 280.476562 452.203125 289.660156 459.488281 296.054688 C 465.148438 300.863281 479.835938 311.367188 485.457031 300.4375 Z M 485.457031 300.4375 "/><path style=" stroke:none;fill-rule:nonzero;fill:#db12d3;fill-opacity:1;" d="M 672.425781 415.277344 C 665.644531 415.625 664.289062 415.972656 668.433594 416.363281 C 669.132812 416.285156 669.828125 416.167969 670.527344 416.089844 C 672.039062 415.664062 673.085938 414.8125 674.519531 414.386719 C 678.433594 413.183594 683.125 412.914062 687.15625 412.175781 C 694.867188 410.703125 702.695312 409.8125 710.527344 409.347656 C 718.625 408.84375 726.882812 408.457031 734.945312 409.152344 C 740.253906 409.617188 745.953125 410.859375 748.316406 416.167969 C 749.246094 418.261719 749.59375 420.585938 749.75 422.835938 C 749.867188 424.347656 749.402344 426.128906 749.671875 427.601562 C 749.789062 428.222656 749.671875 428.84375 749.363281 429.460938 C 750.292969 428.726562 751.222656 427.988281 752.113281 427.292969 C 752.035156 427.136719 742.890625 426.671875 742.386719 426.632812 C 738.238281 426.089844 734.128906 425.355469 730.023438 424.5 C 722.152344 422.914062 714.363281 420.898438 706.613281 418.804688 C 703.007812 417.835938 699.363281 416.90625 695.796875 415.820312 C 694.015625 415.277344 690.527344 414.386719 689.324219 412.757812 C 688.007812 417.835938 686.652344 422.914062 685.332031 427.949219 C 703.046875 419.113281 724.558594 419.773438 741.84375 429.269531 C 742.734375 422.484375 743.625 415.664062 744.515625 408.882812 C 734.789062 411.285156 725.175781 410.78125 715.640625 407.757812 C 705.679688 404.578125 695.140625 401.710938 685.605469 407.835938 C 676.960938 413.378906 679.597656 429.308594 691.1875 428.492188 C 700.644531 427.835938 709.90625 426.941406 717.542969 420.898438 C 721.183594 418.027344 719.632812 411.984375 716.109375 409.890625 C 708.628906 405.433594 699.597656 405.78125 691.1875 406.324219 C 693.046875 413.222656 694.90625 420.082031 696.765625 426.980469 C 699.402344 425.316406 702.773438 426.980469 705.605469 427.875 C 710.023438 429.269531 714.285156 430.742188 718.859375 431.515625 C 729.480469 433.339844 739.945312 432.988281 750.449219 430.429688 C 759.671875 428.144531 761.453125 414.617188 753.121094 410.042969 C 728.550781 396.59375 699.09375 396.285156 674.132812 408.84375 C 669.171875 411.324219 666.730469 419.425781 670.140625 424.035156 C 680.101562 437.601562 698.9375 440.082031 714.363281 443.726562 C 723.121094 445.820312 731.960938 447.484375 740.914062 448.609375 C 749.285156 449.65625 758.820312 450.820312 765.445312 444.382812 C 776.726562 433.53125 772.035156 410.703125 763.238281 399.929688 C 752.425781 386.710938 732.96875 387.292969 717.542969 388.105469 C 707.582031 388.648438 697.621094 390.160156 687.929688 392.410156 C 679.90625 394.269531 668.28125 396.246094 662.816406 403.03125 C 660.296875 406.128906 659.597656 410.082031 662.195312 413.417969 C 664.363281 416.050781 669.25 417.679688 672.425781 415.277344 Z M 672.425781 415.277344 "/><path style=" stroke:none;fill-rule:nonzero;fill:#db12d3;fill-opacity:1;" d="M 299.105469 598.0625 C 291.820312 605.230469 287.285156 615.347656 283.136719 624.535156 C 278.835938 634.144531 275.503906 644.378906 273.175781 654.609375 C 270.96875 664.414062 270.929688 674.453125 277.480469 682.632812 C 283.601562 690.230469 293.136719 693.640625 302.671875 691.894531 C 324.492188 687.902344 327.941406 661.042969 330.304688 643.019531 C 331.703125 632.324219 332.207031 620.65625 328.796875 610.230469 C 325.382812 599.84375 313.988281 590.699219 302.941406 597.171875 C 297.324219 600.464844 296.121094 609.417969 294.570312 615.230469 C 292.980469 621.121094 291.664062 627.089844 290.464844 633.097656 C 287.945312 645.773438 286.160156 658.601562 284.378906 671.429688 C 283.640625 676.664062 285.191406 681.820312 290.539062 683.949219 C 295.113281 685.773438 301.429688 684.414062 303.796875 679.609375 C 312.671875 661.394531 317.980469 642.324219 319.996094 622.167969 C 321.160156 610.386719 300.964844 607.519531 299.144531 619.339844 C 296.972656 633.292969 294.84375 647.246094 292.671875 661.238281 C 291.585938 668.292969 290.269531 677.089844 298.5625 680.382812 C 305.269531 683.097656 313.679688 678.367188 313.253906 670.65625 C 312.671875 660.890625 301.277344 658.523438 295.8125 665.925781 C 295.695312 666.082031 295.578125 666.238281 295.460938 666.390625 C 298.214844 664.804688 300.964844 663.214844 303.71875 661.664062 C 303.484375 661.664062 303.292969 661.664062 303.058594 661.664062 C 305.386719 662.632812 307.671875 663.5625 309.996094 664.53125 C 309.84375 664.378906 309.6875 664.261719 309.53125 664.105469 C 310.5 666.46875 311.507812 668.835938 312.476562 671.199219 C 312.554688 673.601562 312.902344 668.445312 313.019531 667.867188 C 313.332031 665.8125 313.640625 663.796875 313.949219 661.742188 C 314.570312 657.671875 315.230469 653.5625 315.851562 649.492188 C 317.128906 641.316406 318.367188 633.136719 319.648438 624.960938 C 312.710938 624.03125 305.734375 623.0625 298.796875 622.128906 C 297.207031 638.292969 292.632812 654.222656 285.5 668.835938 C 291.972656 671.546875 298.445312 674.300781 304.917969 677.011719 C 308.097656 654.105469 311.429688 631.160156 318.601562 609.109375 C 316.121094 611.589844 313.640625 614.070312 311.199219 616.511719 C 309.453125 617.128906 308.835938 614.84375 308.523438 616.046875 C 308.292969 616.9375 309.027344 618.292969 309.261719 619.183594 C 309.996094 622.480469 310.269531 625.734375 310.308594 629.105469 C 310.421875 636.199219 309.492188 643.136719 308.332031 650.113281 C 307.167969 657.011719 306.742188 677.902344 294.53125 673.871094 C 282.90625 669.996094 291.082031 649.960938 293.371094 642.285156 C 295.269531 635.851562 297.363281 629.457031 299.726562 623.175781 C 302.246094 616.394531 305.617188 609.765625 307.324219 602.75 C 308.371094 598.101562 302.632812 594.574219 299.105469 598.0625 Z M 299.105469 598.0625 "/><path style=" stroke:none;fill-rule:nonzero;fill:#db12d3;fill-opacity:1;" d="M 243.410156 566.667969 C 222.015625 583.292969 190.117188 602.558594 189.921875 633.449219 C 189.808594 648.410156 199.769531 660.539062 214.804688 661.972656 C 229.378906 663.332031 241.628906 654.417969 249.457031 642.90625 C 258.253906 630 263.136719 614.03125 268.914062 599.652344 C 271.199219 594.03125 273.488281 588.566406 272.945312 582.363281 C 272.167969 573.605469 265.386719 567.015625 256.355469 567.597656 C 248.71875 568.101562 241.859375 574.03125 236.628906 579.148438 C 230.929688 584.691406 226.203125 591.277344 221.820312 597.867188 C 217.558594 604.300781 213.566406 610.890625 209.769531 617.597656 C 205.777344 624.609375 199.417969 633.332031 198.800781 641.546875 C 198.023438 651.859375 206.976562 659.378906 217.054688 657.476562 C 226.203125 655.734375 230.96875 647.167969 235.582031 639.921875 C 240.425781 632.285156 244.882812 624.417969 248.875 616.277344 C 250.890625 612.207031 252.789062 608.140625 254.574219 603.953125 C 256.589844 599.300781 259.03125 594.84375 258.914062 589.691406 C 257.324219 592.480469 255.695312 595.269531 254.109375 598.101562 C 254.648438 597.828125 255.230469 597.519531 255.773438 597.246094 C 261.976562 594.070312 260.542969 586.046875 255.773438 582.558594 C 255.230469 582.132812 254.648438 581.746094 254.109375 581.316406 C 250.734375 578.835938 245.078125 579.960938 242.324219 582.828125 C 238.179688 587.132812 236.589844 593.332031 234.109375 598.679688 C 231.667969 603.953125 229.070312 609.144531 226.277344 614.261719 C 223.796875 618.796875 221.203125 623.253906 218.449219 627.632812 C 216.898438 630.074219 215.347656 632.554688 213.683594 634.960938 C 213.332031 635.464844 212.519531 636.355469 212.25 636.898438 C 211.394531 637.671875 211.511719 637.710938 212.558594 637.015625 C 216.007812 644.457031 218.488281 646.355469 220 642.671875 C 223.257812 638.71875 225.269531 632.59375 227.789062 628.136719 C 230.660156 623.0625 233.683594 618.0625 236.78125 613.175781 C 242.054688 604.882812 247.597656 596.085938 255.542969 590.117188 C 255.734375 589.960938 258.679688 588.21875 258.640625 588.101562 C 258.605469 587.789062 249.960938 585.269531 252.132812 583.527344 C 251.859375 583.722656 251.703125 586.550781 251.472656 587.246094 C 249.648438 592.789062 247.167969 598.140625 245.039062 603.566406 C 241.125 613.410156 238.0625 623.992188 232.363281 632.984375 C 228.683594 638.796875 221.976562 644.492188 214.574219 642.984375 C 207.132812 641.472656 207.441406 632.324219 209.070312 626.550781 C 212.054688 616.046875 219.882812 607.710938 227.714844 600.503906 C 232.015625 596.550781 236.511719 592.828125 240.890625 588.992188 C 245.890625 584.613281 249.574219 579.84375 253.214844 574.339844 C 257.75 567.828125 248.644531 562.597656 243.410156 566.667969 Z M 243.410156 566.667969 "/><path style=" stroke:none;fill-rule:nonzero;fill:#db12d3;fill-opacity:1;" d="M 643.707031 529.070312 C 647 535.699219 652.660156 540.699219 657.503906 546.164062 C 662.078125 551.28125 666.535156 556.550781 670.605469 562.054688 C 676.769531 570.425781 686.730469 582.90625 682.15625 593.410156 C 681.265625 595.425781 680.371094 596.433594 678.746094 597.363281 C 678.511719 597.519531 678.316406 597.558594 678.085938 597.636719 C 679.25 597.207031 679.597656 599.882812 678.164062 596.78125 C 674.945312 589.882812 670.488281 583.410156 667.039062 576.589844 C 659.832031 562.289062 653.824219 547.519531 648.9375 532.289062 C 645.296875 537.054688 641.652344 541.824219 638.007812 546.628906 C 644.753906 546.511719 651.652344 560.738281 655.179688 565.96875 C 658.746094 571.242188 662.3125 576.472656 665.875 581.742188 C 667.621094 584.300781 669.480469 586.820312 670.914062 589.574219 C 671.265625 590.195312 671.496094 590.890625 671.84375 591.511719 C 672.777344 593.253906 671.769531 593.875 672.621094 591.976562 C 676.882812 590.230469 681.1875 588.488281 685.449219 586.742188 C 683.667969 586.203125 684.132812 585.8125 683.007812 584.457031 C 680.566406 581.511719 678.316406 580 674.675781 578.683594 C 671.921875 577.675781 667.96875 578.757812 666.03125 580.96875 C 656.148438 592.324219 667.738281 605.347656 679.363281 608.679688 C 685.796875 610.542969 690.992188 606.355469 693.355469 600.734375 C 696.726562 592.675781 693.820312 583.757812 689.558594 576.628906 C 684.867188 568.722656 679.25 561.28125 674.09375 553.644531 C 665.296875 540.660156 655.914062 523.722656 637.96875 523.957031 C 630.917969 524.070312 624.753906 531.164062 627.039062 538.296875 C 633.550781 558.449219 641.808594 578.101562 652 596.667969 C 656.730469 605.308594 661.691406 616.394531 672.078125 619.300781 C 682.542969 622.246094 693.203125 616.585938 699.207031 608.214844 C 711.183594 591.628906 704.054688 570.929688 692.96875 556.125 C 687.117188 548.296875 680.914062 540.351562 673.667969 533.761719 C 666.535156 527.289062 658.667969 520.933594 648.707031 520.273438 C 644.015625 520.039062 641.886719 525.429688 643.707031 529.070312 Z M 643.707031 529.070312 "/><path style=" stroke:none;fill-rule:nonzero;fill:#db12d3;fill-opacity:1;" d="M 668.203125 490.660156 C 674.675781 499.226562 683.085938 505.546875 691.882812 511.589844 C 700.796875 517.714844 710.71875 523.761719 720.640625 527.984375 C 730.679688 532.25 742.191406 530.195312 747.734375 520.15625 C 752.425781 511.628906 750.757812 501.242188 746.261719 493.066406 C 741.6875 484.769531 734.167969 478.761719 726.726562 473.183594 C 718.160156 466.785156 709.519531 460.390625 700.757812 454.230469 C 692.269531 448.222656 681.417969 444.460938 671.921875 450.703125 C 663.164062 456.4375 661.304688 468.414062 665.296875 477.5625 C 670.0625 488.492188 681.730469 493.683594 691.535156 499.1875 C 702.96875 505.621094 714.441406 512.054688 725.875 518.492188 C 734.867188 523.566406 748.003906 512.714844 741.105469 503.257812 C 726.070312 482.714844 706.417969 466.207031 682.96875 456.089844 C 677.464844 453.726562 671.03125 454.460938 667.738281 460.082031 C 664.792969 465.121094 666.417969 472.445312 671.730469 475.3125 C 676.613281 477.910156 681.574219 480.234375 687.15625 478.53125 C 690.140625 477.601562 691.84375 475.121094 692.039062 472.097656 C 692.425781 466.28125 688.820312 461.980469 685.21875 457.832031 C 680.722656 463.648438 676.226562 469.460938 671.730469 475.3125 C 691.535156 483.839844 709.132812 497.019531 721.882812 514.5 C 726.960938 509.421875 732.039062 504.34375 737.113281 499.265625 C 727.851562 494.035156 718.550781 488.800781 709.285156 483.570312 C 702.078125 479.5 693.164062 475.972656 687.039062 470.351562 C 685.179688 468.648438 686.148438 469.5 685.410156 467.792969 C 685.566406 468.066406 685.527344 468.335938 685.332031 468.570312 C 685.644531 467.214844 685.722656 466.941406 685.566406 467.792969 C 685.644531 467.753906 683.355469 470.003906 683.242188 469.769531 C 683.550781 470.351562 687.386719 471.941406 688.164062 472.445312 C 696.339844 477.871094 704.207031 483.917969 712.152344 489.65625 C 717.65625 493.609375 724.207031 497.871094 727.464844 504.035156 C 728.160156 505.390625 728.820312 506.667969 729.015625 508.21875 C 728.898438 507.132812 729.441406 509.847656 728.976562 508.878906 C 728.585938 510.195312 728.511719 510.46875 728.820312 509.769531 C 729.015625 509.574219 729.207031 509.382812 729.441406 509.226562 C 730.449219 508.917969 730.449219 508.683594 729.441406 508.53125 C 728.78125 508.375 728.160156 508.140625 727.578125 507.832031 C 709.671875 500.15625 694.054688 487.328125 675.332031 481.4375 C 670.410156 479.925781 664.832031 486.203125 668.203125 490.660156 Z M 668.203125 490.660156 "/><path style=" stroke:none;fill-rule:nonzero;fill:#db12d3;fill-opacity:1;" d="M 220.039062 514.808594 C 209.148438 510.46875 196.046875 520.3125 187.328125 526.085938 C 177.519531 532.558594 168.21875 539.886719 159.730469 547.984375 C 151.863281 555.425781 141.980469 564.304688 139.304688 575.195312 C 136.4375 587.015625 143.296875 600.230469 156.050781 601.472656 C 168.605469 602.710938 179.109375 592.285156 188.335938 585.230469 C 198.21875 577.714844 207.984375 570.078125 217.636719 562.25 C 225.773438 555.660156 237.132812 546.707031 237.597656 535.234375 C 237.867188 528.488281 233.371094 522.40625 227.015625 520.351562 C 220.386719 518.21875 214.148438 520.542969 208.488281 524.109375 C 186.746094 537.792969 166.476562 555 150.15625 574.882812 C 146.707031 579.070312 145.699219 584.691406 149.304688 589.222656 C 152.597656 593.332031 158.683594 594.960938 163.375 592.054688 C 166.941406 589.804688 170.542969 587.519531 173.722656 584.726562 C 176.746094 582.054688 178.179688 578.757812 179.457031 575 C 180.464844 572.015625 178.296875 567.675781 175 567.171875 C 171.046875 566.550781 167.519531 566.125 163.683594 567.519531 C 159.691406 568.992188 155.972656 571.085938 152.328125 573.21875 C 156.746094 578.914062 161.125 584.652344 165.542969 590.347656 C 174.304688 580.347656 183.375 570.8125 193.449219 562.132812 C 198.101562 558.101562 202.90625 554.265625 207.90625 550.660156 C 210.386719 548.839844 212.945312 547.09375 215.503906 545.390625 C 217.054688 544.382812 218.566406 543.335938 220.15625 542.367188 C 220.660156 542.054688 221.164062 541.746094 221.707031 541.433594 C 223.527344 540.621094 222.519531 540.234375 218.566406 540.273438 C 217.636719 538.683594 216.707031 537.09375 215.777344 535.503906 C 216.820312 532.054688 216.785156 531.550781 215.582031 534.070312 C 215.273438 534.574219 214.960938 535.039062 214.652344 535.542969 C 213.835938 536.707031 212.867188 537.753906 211.859375 538.761719 C 209.378906 541.28125 206.628906 543.566406 203.914062 545.816406 C 197.636719 550.96875 191.320312 556.007812 184.925781 561.007812 C 178.992188 565.660156 172.984375 570.195312 166.941406 574.730469 C 166.511719 575.039062 158.179688 580.542969 158.140625 580.347656 C 158.101562 580 159.226562 581.238281 159.847656 580.890625 C 159.070312 581.277344 160.542969 578.953125 160.699219 578.605469 C 161.359375 577.285156 162.289062 576.203125 163.179688 575.078125 C 165.507812 572.25 168.140625 569.574219 170.699219 566.976562 C 175.933594 561.667969 181.4375 556.667969 187.289062 552.015625 C 192.90625 547.558594 198.875 543.566406 204.960938 539.808594 C 211.085938 536.046875 218.332031 533.296875 223.488281 528.21875 C 228.21875 523.605469 225.425781 516.941406 220.039062 514.808594 Z M 220.039062 514.808594 "/><path style=" stroke:none;fill-rule:nonzero;fill:#db12d3;fill-opacity:1;" d="M 467.9375 277.917969 C 468.675781 292.375 473.441406 307.140625 476.96875 321.132812 C 478.828125 328.496094 490.535156 328.84375 492.238281 321.132812 C 494.527344 310.511719 495.804688 300.125 495.574219 289.234375 C 490.261719 290.667969 484.992188 292.101562 479.679688 293.535156 C 481.734375 297.335938 482.125 300.976562 481.65625 305.203125 C 480.84375 312.527344 491.773438 316.792969 496.425781 311.328125 C 501.191406 305.707031 503.59375 299.894531 504.410156 292.605469 C 498.59375 292.605469 492.742188 292.605469 486.929688 292.605469 C 487.589844 300.359375 487.550781 308.109375 486.269531 315.785156 C 485.613281 319.738281 486.695312 323.691406 490.339844 325.824219 C 493.519531 327.683594 498.632812 327.449219 501.113281 324.425781 C 507.625 316.519531 513.011719 308.109375 517.042969 298.691406 C 511.464844 297.179688 505.84375 295.667969 500.261719 294.15625 C 499.601562 302.023438 497.472656 309.582031 494.449219 316.871094 C 492.742188 320.976562 495.960938 326.09375 499.71875 327.605469 C 504.214844 329.425781 508.324219 327.644531 511.074219 323.882812 C 518.207031 314.234375 525.261719 304.542969 532.355469 294.855469 C 526.8125 292.527344 521.230469 290.164062 515.6875 287.839844 C 513.671875 298.226562 509.175781 307.335938 501.773438 314.929688 C 506.074219 319.234375 510.378906 323.535156 514.679688 327.839844 C 522.394531 318.226562 530.609375 309.117188 539.332031 300.4375 C 534.5625 296.753906 529.796875 293.070312 525.027344 289.390625 C 520.339844 299.039062 512.546875 307.449219 509.292969 317.683594 C 507.355469 323.730469 514.097656 327.140625 518.945312 325.085938 C 529.5625 320.589844 535.957031 308.457031 540.765625 298.574219 C 545.144531 289.582031 534.136719 279.894531 526.460938 287.527344 C 517.742188 296.210938 509.527344 305.320312 501.8125 314.929688 C 498.75 318.769531 498.054688 324.078125 501.8125 327.839844 C 505.261719 331.289062 511.269531 331.363281 514.71875 327.839844 C 524.175781 318.148438 530.765625 306.015625 533.324219 292.683594 C 535.339844 282.257812 522.78125 277.296875 516.65625 285.667969 C 509.5625 295.359375 502.472656 305.007812 495.417969 314.699219 C 500.960938 317.023438 506.503906 319.386719 512.042969 321.714844 C 515.648438 312.839844 517.585938 303.691406 518.324219 294.15625 C 518.671875 289.738281 514.640625 285.785156 510.53125 285.320312 C 505.726562 284.738281 502.433594 287.492188 500.648438 291.753906 C 497.664062 298.925781 493.480469 305.824219 488.597656 311.871094 C 493.558594 314.738281 498.519531 317.644531 503.480469 320.511719 C 504.914062 311.171875 505.378906 301.984375 504.449219 292.605469 C 503.324219 281.40625 488.054688 281.367188 486.96875 292.605469 C 486.734375 294.972656 485.765625 297.296875 484.253906 299.117188 C 489.175781 301.171875 494.097656 303.1875 499.023438 305.242188 C 499.71875 298.109375 498.015625 291.171875 494.488281 284.972656 C 490.378906 277.761719 478.324219 280.746094 478.597656 289.273438 C 478.90625 298.421875 478.597656 307.917969 477.046875 316.984375 C 482.125 316.984375 487.199219 316.984375 492.316406 316.984375 C 488.167969 303.1875 484.71875 288.109375 477.9375 275.320312 C 475.417969 270.667969 467.703125 272.683594 467.9375 277.917969 Z M 467.9375 277.917969 "/><path style=" stroke:none;fill-rule:nonzero;fill:#db12d3;fill-opacity:1;" d="M 280.425781 357.875 C 281.160156 363.222656 286.859375 368.574219 290.617188 372.140625 C 295.269531 376.558594 300.617188 380.433594 306.121094 383.765625 C 313.640625 388.339844 322.710938 377.253906 315.734375 371.324219 C 310.347656 366.789062 305.386719 361.945312 300.734375 356.675781 C 296.742188 360.667969 292.789062 364.621094 288.796875 368.613281 C 295.308594 375.550781 303.835938 380.277344 313.253906 381.789062 C 321.585938 383.144531 327.515625 374.230469 321.585938 367.488281 C 320.34375 366.054688 319.261719 364.503906 318.523438 362.71875 C 318.136719 361.675781 317.828125 360.589844 317.59375 359.503906 C 317.515625 357.757812 317.089844 358.070312 316.316406 360.511719 C 315.035156 361.246094 313.757812 361.984375 312.476562 362.71875 C 312.867188 362.644531 313.253906 362.566406 313.640625 362.488281 C 312.089844 362.488281 310.578125 362.488281 309.027344 362.488281 C 309.414062 362.605469 309.765625 362.71875 310.152344 362.875 C 308.875 362.140625 307.59375 361.402344 306.316406 360.667969 C 309.570312 363.1875 311.355469 368.804688 313.292969 372.410156 C 317.789062 380.664062 328.796875 376.015625 329.570312 367.992188 C 330.460938 359.269531 330.773438 350.550781 330.539062 341.789062 C 324.765625 342.566406 318.949219 343.339844 313.175781 344.15625 C 314.804688 350.78125 316.390625 357.449219 318.019531 364.078125 C 323.757812 362.488281 329.453125 360.9375 335.191406 359.347656 C 333.253906 353.417969 333.175781 348.03125 334.996094 342.0625 C 329.261719 342.0625 323.484375 342.0625 317.75 342.0625 C 318.796875 347.835938 319.609375 353.613281 320.074219 359.464844 C 320.539062 365.472656 320.5 371.636719 323.640625 376.984375 C 326.277344 381.441406 333.175781 381.632812 335.734375 376.984375 C 339.105469 370.898438 338.523438 364.191406 337.863281 357.488281 C 337.207031 350.746094 336.238281 344 334.996094 337.332031 C 333.289062 328.226562 320.113281 329.425781 317.75 337.332031 C 315.074219 346.132812 315.113281 355.394531 318.019531 364.117188 C 321.625 374.929688 337.941406 370.589844 335.191406 359.386719 C 333.523438 352.757812 331.894531 346.132812 330.230469 339.503906 C 327.824219 329.890625 312.554688 331.828125 312.867188 341.867188 C 313.136719 350.628906 312.867188 359.347656 312.089844 368.070312 C 317.515625 366.597656 322.941406 365.125 328.367188 363.652344 C 325.578125 358.613281 323.136719 352.410156 318.679688 348.613281 C 314.105469 344.699219 307.4375 344.699219 303.175781 349.117188 C 295.035156 357.527344 303.175781 372.796875 309.414062 379.695312 C 312.207031 374.929688 314.957031 370.160156 317.75 365.394531 C 310.964844 364.386719 305.421875 361.75 300.65625 356.789062 C 293.097656 348.882812 281.507812 360.703125 288.71875 368.726562 C 293.875 374.464844 299.726562 379.464844 306.042969 383.882812 C 308.71875 379.308594 311.390625 374.773438 314.027344 370.199219 C 308.757812 367.605469 303.640625 364.8125 298.601562 361.789062 C 294.339844 359.230469 289.261719 354.734375 284.300781 354.039062 C 281.78125 353.574219 280.074219 355.277344 280.425781 357.875 Z M 280.425781 357.875 "/><path style=" stroke:none;fill-rule:nonzero;fill:#db12d3;fill-opacity:1;" d="M 329.296875 374.773438 C 325.578125 367.71875 320.65625 361.324219 317.128906 354.15625 C 313.601562 347.023438 312.011719 339.8125 310.5 332.023438 C 308.175781 320.242188 288.5625 322.761719 289.378906 334.890625 C 290.734375 354.734375 301.898438 377.679688 321.082031 385.433594 C 327.398438 387.992188 331.972656 379.8125 329.296875 374.773438 Z M 329.296875 374.773438 "/><path style=" stroke:none;fill-rule:nonzero;fill:#44d9d8;fill-opacity:1;" d="M 456.582031 320.898438 C 487.742188 315.125 520.417969 313.921875 550.726562 323.265625 C 583.59375 333.378906 611.5 355.125 637.777344 377.332031 C 652.621094 389.890625 667.425781 402.914062 678.203125 419.113281 C 688.976562 435.316406 695.449219 455.199219 691.921875 474.34375 C 689.558594 487.136719 683.007812 498.722656 675.914062 509.652344 C 631.535156 578.101562 562.78125 630.347656 484.992188 654.765625 C 458.285156 663.136719 430.070312 668.367188 402.242188 665.269531 C 367.941406 661.429688 336.238281 645.191406 307.398438 626.277344 C 280.308594 608.566406 254.378906 587.75 235.15625 561.472656 C 221.9375 543.410156 195.234375 506.941406 193.375 484.035156 C 191.125 456.359375 233.796875 434.191406 252.90625 419.8125 C 281.433594 398.378906 311.199219 378.417969 342.824219 361.75 C 378.597656 342.914062 416.738281 328.265625 456.582031 320.898438 Z M 456.582031 320.898438 "/><path style=" stroke:none;fill-rule:nonzero;fill:#db12d3;fill-opacity:1;" d="M 621.1875 303.421875 C 621.5 300.511719 621.808594 297.566406 623.046875 294.933594 C 625.800781 289.117188 632.699219 286.171875 639.132812 286.210938 C 645.566406 286.25 651.730469 288.691406 657.699219 291.132812 C 665.644531 294.351562 673.746094 297.644531 680.21875 303.226562 C 686.730469 308.808594 691.417969 317.179688 690.449219 325.667969 C 689.984375 329.777344 688.203125 333.613281 686.300781 337.296875 C 681.03125 347.488281 674.519531 357.0625 666.921875 365.667969 C 655.800781 378.261719 629.40625 393.804688 615.800781 375.976562 C 602.699219 358.84375 619.328125 321.984375 621.1875 303.421875 Z M 621.1875 303.421875 "/><path style=" stroke:none;fill-rule:nonzero;fill:#a23df6;fill-opacity:1;" d="M 606.34375 417.5625 C 608.824219 425.898438 614.289062 432.40625 621.265625 437.523438 C 628.046875 442.484375 639.367188 447.136719 644.558594 437.40625 C 648.707031 429.65625 644.441406 419.074219 638.667969 413.378906 C 632.660156 407.449219 623.902344 403.960938 615.453125 405.042969 C 608.667969 405.898438 603.785156 412.214844 607.507812 418.921875 C 608.667969 421.011719 610.066406 422.601562 612.3125 423.570312 C 621.613281 427.5625 629.597656 417.757812 623.046875 409.65625 C 622.816406 409.386719 622.582031 409.074219 622.351562 408.804688 C 623.125 410.160156 623.902344 411.476562 624.714844 412.835938 C 624.597656 412.484375 624.484375 412.175781 624.328125 411.828125 C 622.195312 415.585938 620.027344 419.386719 617.894531 423.144531 C 620.140625 422.835938 622.972656 423.957031 624.753906 425.277344 C 625.957031 426.167969 627.234375 427.445312 628.046875 428.6875 C 628.398438 429.230469 628.746094 429.8125 629.054688 430.394531 C 629.484375 432.601562 629.832031 432.175781 630.140625 429.230469 C 631.34375 428.53125 632.542969 427.835938 633.746094 427.136719 C 634.519531 426.941406 630.957031 425.429688 630.335938 425.121094 C 628.320312 424.074219 626.34375 422.875 624.519531 421.476562 C 621.109375 418.882812 618.085938 415.585938 615.179688 412.449219 C 611.613281 408.492188 604.871094 412.523438 606.34375 417.5625 Z M 606.34375 417.5625 "/><path style=" stroke:none;fill-rule:nonzero;fill:#a23df6;fill-opacity:1;" d="M 588.785156 422.019531 C 588.746094 421.90625 588.671875 421.789062 588.632812 421.671875 C 587.625 419.425781 584.25 418.84375 582.3125 420.003906 C 578.710938 422.214844 576.730469 426.402344 578.050781 430.546875 C 579.367188 434.65625 584.25 437.871094 588.59375 436.671875 C 592.507812 435.585938 594.523438 430.394531 594.675781 426.75 C 594.832031 423.066406 593.4375 419.269531 590.609375 416.828125 C 587.933594 414.5 584.019531 414.464844 581.695312 417.449219 C 579.484375 420.277344 580.335938 424.308594 583.359375 426.207031 C 584.136719 426.671875 583.554688 426.128906 583.398438 426.207031 C 583.59375 426.128906 583.941406 426.941406 583.476562 426.207031 C 583.671875 426.476562 583.824219 426.789062 583.980469 427.097656 C 583.59375 426.207031 583.941406 427.601562 583.902344 426.980469 C 583.863281 426.402344 583.902344 427.445312 583.902344 427.523438 C 583.902344 428.378906 584.097656 426.828125 583.902344 427.640625 C 583.863281 427.71875 583.59375 428.648438 583.746094 428.222656 C 583.902344 427.757812 583.128906 428.84375 583.671875 428.261719 C 584.871094 427.757812 586.035156 427.292969 587.234375 426.789062 C 585.335938 427.019531 587.3125 426.789062 587.042969 427.019531 C 586.730469 427.332031 586.964844 426.207031 586.925781 427.097656 C 586.925781 427.484375 587.351562 427.640625 586.925781 427.949219 C 588.554688 426.789062 589.675781 424.8125 589.058594 422.757812 C 589.019531 422.523438 588.941406 422.292969 588.785156 422.019531 Z M 588.785156 422.019531 "/><path style=" stroke:none;fill-rule:nonzero;fill:#a23df6;fill-opacity:1;" d="M 604.445312 446.554688 C 598.4375 446.59375 596.5 455.277344 601.652344 458.144531 C 604.523438 459.769531 608.089844 458.414062 610.296875 456.285156 C 612.621094 453.996094 613.589844 450.894531 612.933594 447.71875 C 612.351562 444.886719 609.09375 443.453125 606.5 444.074219 C 603.941406 444.65625 600.839844 444.964844 599.019531 447.058594 C 596.5 449.964844 597.625 453.839844 601.148438 455.160156 C 603.746094 456.128906 606.730469 454.847656 609.25 454.152344 C 607.117188 452.949219 604.949219 451.710938 602.816406 450.507812 C 603.089844 451.671875 602.390625 449.5 602.855469 450.585938 C 602.855469 451.050781 602.855469 451.089844 602.894531 450.664062 C 602.894531 450.390625 603.011719 450.121094 603.203125 449.925781 C 602.816406 450.664062 603.554688 449.695312 603.164062 450.042969 C 602.933594 450.277344 603.011719 450.238281 603.398438 449.925781 C 603.011719 450.160156 602.972656 450.160156 603.28125 450.042969 C 603.203125 449.886719 605.800781 450.082031 606.5 450.742188 C 607.042969 451.246094 607.273438 451.824219 607.3125 452.5625 C 607.273438 451.863281 607.082031 453.375 606.964844 453.570312 C 606.652344 454.074219 604.675781 454.925781 605.53125 454.773438 C 607.546875 454.421875 608.785156 452.058594 608.515625 450.199219 C 608.203125 448.144531 606.539062 446.515625 604.445312 446.554688 Z M 604.445312 446.554688 "/><path style=" stroke:none;fill-rule:nonzero;fill:#a23df6;fill-opacity:1;" d="M 267.632812 444.269531 C 255.464844 441.863281 244.921875 449.695312 240 460.546875 C 238.835938 463.144531 238.992188 467.175781 242.09375 468.53125 C 257.480469 475.160156 277.554688 466.515625 281.277344 449.421875 C 282.285156 444.8125 279.222656 440.972656 274.609375 440.664062 C 266.703125 440.121094 252.789062 443.375 252.867188 453.335938 C 252.90625 456.710938 255.503906 458.800781 258.640625 459.113281 C 261.9375 459.421875 263.992188 457.71875 266.703125 456.207031 C 269.222656 454.808594 271.703125 454.382812 274.609375 454.460938 C 272.402344 451.554688 270.152344 448.648438 267.945312 445.703125 C 266.160156 455.78125 256.277344 461.632812 246.589844 457.832031 C 247.945312 460.238281 249.300781 462.640625 250.65625 465.003906 C 253.679688 457.679688 261.472656 452.796875 268.292969 449.460938 C 270.464844 448.414062 270 444.734375 267.632812 444.269531 Z M 267.632812 444.269531 "/><path style=" stroke:none;fill-rule:nonzero;fill:#a23df6;fill-opacity:1;" d="M 248.292969 457.792969 C 247.789062 459.304688 248.023438 461.128906 248.796875 462.523438 C 249.804688 464.265625 251.664062 465.351562 253.679688 465.390625 C 256.472656 465.429688 258.71875 463.414062 258.875 460.585938 C 258.914062 459.421875 258.332031 458.027344 257.480469 457.253906 C 256.859375 456.671875 256.121094 456.246094 255.308594 456.011719 C 255.191406 455.972656 255.078125 455.972656 255 455.933594 C 255.386719 456.089844 255.773438 456.246094 256.160156 456.4375 C 256.085938 456.398438 256.046875 456.359375 255.96875 456.320312 C 256.277344 456.59375 256.625 456.824219 256.9375 457.097656 C 256.820312 457.019531 256.703125 456.902344 256.625 456.785156 C 256.898438 457.136719 257.128906 457.445312 257.402344 457.792969 C 257.324219 457.679688 257.285156 457.601562 257.207031 457.484375 C 257.363281 457.871094 257.519531 458.261719 257.710938 458.648438 C 257.671875 458.570312 257.671875 458.492188 257.671875 458.414062 C 257.710938 458.839844 257.789062 459.269531 257.828125 459.695312 C 257.828125 459.578125 257.828125 459.460938 257.828125 459.34375 C 257.789062 459.769531 257.710938 460.199219 257.671875 460.625 C 257.671875 460.546875 257.710938 460.46875 257.710938 460.390625 C 258.023438 459.152344 257.867188 457.757812 257.207031 456.632812 C 256.625 455.625 255.464844 454.65625 254.300781 454.382812 C 253.0625 454.113281 251.664062 454.152344 250.542969 454.886719 C 249.417969 455.585938 248.679688 456.515625 248.292969 457.792969 Z M 248.292969 457.792969 "/><path style=" stroke:none;fill-rule:nonzero;fill:#a23df6;fill-opacity:1;" d="M 256.472656 484.1875 C 256.121094 484.769531 255.8125 485.429688 255.734375 486.089844 C 256.121094 485.46875 256.472656 484.808594 256.859375 484.1875 C 255.152344 485.660156 255.230469 488.21875 256.199219 490.042969 C 256.664062 490.972656 257.519531 491.863281 258.410156 492.367188 C 260.8125 493.722656 263.796875 493.375 265.773438 491.476562 C 267.207031 490.121094 267.984375 488.179688 267.984375 486.203125 C 267.984375 483.453125 266.277344 480.585938 263.410156 480.003906 C 261.433594 479.617188 259.574219 480.121094 258.292969 481.746094 C 257.167969 483.21875 256.859375 485.507812 257.90625 487.136719 C 257.984375 487.25 258.023438 487.328125 258.0625 487.445312 C 257.90625 487.058594 257.710938 486.632812 257.558594 486.242188 C 257.789062 486.902344 258.0625 487.523438 258.332031 488.179688 C 258.175781 487.753906 257.984375 487.367188 257.828125 486.941406 C 257.90625 487.171875 257.945312 487.367188 257.984375 487.601562 C 257.90625 487.136719 257.867188 486.707031 257.789062 486.242188 C 257.828125 486.515625 257.828125 486.785156 257.789062 487.058594 C 257.867188 486.632812 257.90625 486.164062 257.984375 485.738281 C 257.945312 485.972656 257.90625 486.164062 257.789062 486.359375 C 257.945312 485.972656 258.136719 485.585938 258.292969 485.195312 C 258.214844 485.3125 258.175781 485.429688 258.101562 485.507812 C 258.371094 485.195312 258.605469 484.847656 258.875 484.539062 C 258.796875 484.65625 258.71875 484.730469 258.605469 484.808594 C 258.914062 484.578125 259.261719 484.304688 259.574219 484.074219 C 259.457031 484.152344 259.378906 484.1875 259.261719 484.265625 C 259.648438 484.113281 260.039062 483.957031 260.386719 483.800781 C 260.308594 483.839844 260.230469 483.839844 260.113281 483.878906 C 260.542969 483.839844 260.96875 483.761719 261.394531 483.722656 C 261.238281 483.722656 261.121094 483.761719 260.96875 483.722656 C 261.394531 483.761719 261.78125 483.839844 262.207031 483.878906 C 262.09375 483.839844 261.976562 483.839844 261.820312 483.800781 C 262.207031 483.957031 262.558594 484.113281 262.945312 484.265625 C 262.480469 484.035156 262.671875 483.878906 263.449219 484.730469 C 263.023438 484.265625 264.222656 485.777344 263.835938 485.234375 C 262.828125 483.800781 261.589844 483.105469 259.84375 482.949219 C 260.851562 483.375 261.898438 483.800781 262.90625 484.226562 C 263.835938 485.390625 263.488281 485.003906 263.292969 484.691406 C 263.023438 484.1875 263.679688 485.738281 263.488281 485.195312 C 262.984375 483.722656 261.820312 482.640625 260.269531 482.40625 C 258.796875 482.097656 257.246094 482.832031 256.472656 484.1875 Z M 256.472656 484.1875 "/><path style=" stroke:none;fill-rule:nonzero;fill:#44d9d8;fill-opacity:1;" d="M 620.21875 265.707031 C 613.011719 246.753906 612.855469 225.59375 617.621094 205.902344 C 621.070312 191.835938 627.15625 178.074219 637.390625 167.804688 C 647.582031 157.535156 662.273438 151.101562 676.652344 153.078125 C 681.148438 174.042969 683.472656 195.476562 683.550781 216.910156 C 697.734375 202.378906 706.417969 182.570312 707.542969 162.300781 C 729.671875 161.71875 749.789062 179.355469 755.835938 200.632812 C 761.882812 221.910156 755.601562 245.398438 742.929688 263.539062 C 711.496094 308.496094 643.320312 326.597656 620.21875 265.707031 Z M 620.21875 265.707031 "/><path style=" stroke:none;fill-rule:nonzero;fill:#db12d3;fill-opacity:1;" d="M 179.847656 417.71875 C 177.015625 417.097656 174.070312 416.476562 171.589844 414.929688 C 166.125 411.554688 163.957031 404.386719 164.691406 397.953125 C 165.429688 391.558594 168.566406 385.703125 171.628906 380.046875 C 175.699219 372.527344 179.886719 364.851562 186.164062 359 C 192.441406 353.148438 201.28125 349.386719 209.613281 351.324219 C 213.644531 352.253906 217.25 354.425781 220.699219 356.714844 C 230.269531 363.070312 239.03125 370.628906 246.742188 379.117188 C 258.0625 391.558594 270.542969 419.5 251.316406 431.089844 C 232.867188 442.253906 198.101562 421.671875 179.847656 417.71875 Z M 179.847656 417.71875 "/><path style=" stroke:none;fill-rule:nonzero;fill:#44d9d8;fill-opacity:1;" d="M 142.25 414.539062 C 122.640625 419.578125 101.554688 417.410156 82.523438 410.472656 C 68.921875 405.507812 55.9375 397.914062 46.828125 386.632812 C 37.71875 375.355469 32.992188 360.007812 36.558594 345.976562 C 57.914062 343.84375 79.460938 343.921875 100.78125 346.210938 C 87.910156 330.511719 69.191406 319.660156 49.152344 316.328125 C 51.011719 294.273438 70.742188 276.210938 92.5625 272.570312 C 114.382812 268.886719 137.019531 277.761719 153.644531 292.375 C 194.921875 328.535156 205.3125 398.339844 142.25 414.539062 Z M 142.25 414.539062 "/><path style=" stroke:none;fill-rule:nonzero;fill:#ffffff;fill-opacity:1;" d="M 205.699219 286.636719 C 199.148438 337.332031 254.339844 372.175781 300.5 361.828125 C 353.601562 349.890625 362.785156 270.863281 324.300781 238.617188 C 295.230469 214.238281 254.144531 215.246094 227.90625 243.265625 C 214.378906 257.722656 207.519531 272.53125 205.699219 286.636719 Z M 205.699219 286.636719 "/><path style=" stroke:none;fill-rule:nonzero;fill:#010101;fill-opacity:1;" d="M 312.050781 313.109375 C 346.894531 297.566406 341.625 248.152344 304.105469 240.476562 C 270.734375 233.65625 243.488281 273.460938 266.820312 300.320312 C 278.523438 313.808594 294.648438 320.863281 312.050781 313.109375 Z M 312.050781 313.109375 "/><path style=" stroke:none;fill-rule:nonzero;fill:#ffffff;fill-opacity:1;" d="M 313.5625 280.203125 C 326.003906 282.375 334.957031 266.132812 325.773438 256.910156 C 318.40625 249.546875 305.460938 250.320312 302.980469 260.632812 C 300.925781 269.273438 303.910156 278.539062 313.5625 280.203125 Z M 313.5625 280.203125 "/><path style=" stroke:none;fill-rule:nonzero;fill:#ffffff;fill-opacity:1;" d="M 434.605469 214.585938 C 427.085938 272.722656 490.378906 312.683594 543.324219 300.785156 C 604.25 287.101562 614.714844 196.484375 570.609375 159.511719 C 537.277344 131.566406 490.183594 132.691406 460.070312 164.859375 C 444.566406 181.449219 436.699219 198.421875 434.605469 214.585938 Z M 434.605469 214.585938 "/><path style=" stroke:none;fill-rule:nonzero;fill:#010101;fill-opacity:1;" d="M 556.539062 244.933594 C 596.5 227.144531 590.453125 170.441406 547.429688 161.640625 C 509.175781 153.8125 477.9375 199.46875 504.679688 230.28125 C 518.089844 245.746094 536.617188 253.847656 556.539062 244.933594 Z M 556.539062 244.933594 "/><path style=" stroke:none;fill-rule:nonzero;fill:#ffffff;fill-opacity:1;" d="M 558.320312 207.222656 C 572.585938 209.703125 582.855469 191.058594 572.3125 180.515625 C 563.863281 172.066406 549.019531 172.960938 546.191406 184.78125 C 543.789062 194.664062 547.199219 205.285156 558.320312 207.222656 Z M 558.320312 207.222656 "/><path style=" stroke:none;fill-rule:nonzero;fill:#db12d3;fill-opacity:1;" d="M 495.609375 361.945312 C 493.945312 379.8125 491.851562 397.953125 484.875 414.5 C 477.898438 431.050781 465.300781 446.050781 448.324219 451.902344 C 433.25 457.097656 415.921875 454.34375 402.511719 445.742188 C 394.839844 440.820312 374.335938 422.71875 377.28125 411.75 C 380.382812 400.160156 406.117188 405.007812 416.464844 403.300781 C 431.621094 400.820312 446.425781 395.859375 460.03125 388.6875 C 466.929688 385.085938 494.757812 370.742188 495.609375 361.945312 Z M 495.609375 361.945312 "/></g></svg>