<svg xmlns="http://www.w3.org/2000/svg" xmlns:xlink="http://www.w3.org/1999/xlink" width="1080" zoomAndPan="magnify" viewBox="0 0 810 809.999993" height="1080" preserveAspectRatio="xMidYMid meet" version="1.2"><defs><clipPath id="f1ba4cf002"><path d="M 619 294 L 795.816406 294 L 795.816406 479.695312 L 619 479.695312 Z M 619 294 "/></clipPath><clipPath id="0cbad6e95d"><path d="M 428 614 L 548 614 L 548 712.117188 L 428 712.117188 Z M 428 614 "/></clipPath></defs><g id="47a44b57e5"><path style=" stroke:none;fill-rule:nonzero;fill:#db12d3;fill-opacity:1;" d="M 134.019531 318.667969 C 120.59375 325.597656 106.25 331.945312 90.652344 332.792969 C 82.917969 333.28125 74.933594 332.058594 67.695312 328.890625 C 60.4375 325.761719 54.011719 320.761719 49.007812 314.59375 C 44.085938 308.363281 40.464844 301.066406 38.515625 293.398438 C 36.429688 285.792969 35.804688 277.859375 36.007812 270.03125 C 36.546875 254.3125 40.9375 239.011719 47.527344 224.925781 C 50.863281 217.894531 54.707031 211.089844 59.230469 204.722656 C 63.707031 198.265625 68.945312 192.496094 74.179688 186.859375 C 84.808594 175.648438 96.710938 165.527344 109.878906 157.328125 C 136.082031 140.539062 166.765625 131.792969 197.355469 129.40625 C 228.074219 126.933594 258.757812 130.261719 288.707031 135.730469 C 303.714844 138.445312 318.5625 141.910156 333.339844 145.238281 C 348.144531 148.539062 362.964844 151.722656 377.871094 154.265625 C 407.59375 159.390625 438.167969 161.828125 467.921875 156.191406 C 497.699219 150.816406 525.535156 137.089844 549.765625 118.960938 L 550.21875 119.550781 C 526.242188 138.144531 498.441406 152.503906 468.367188 158.476562 C 438.332031 164.6875 407.261719 162.832031 377.253906 158.082031 C 362.191406 155.71875 347.269531 152.714844 332.398438 149.59375 C 317.519531 146.453125 302.742188 143.191406 287.828125 140.683594 C 258.074219 135.636719 227.785156 132.675781 197.894531 135.566406 C 168.089844 138.324219 138.84375 147.351562 113.902344 163.625 C 101.375 171.636719 90.042969 181.40625 79.664062 192.085938 C 74.539062 197.535156 69.515625 203.011719 65.296875 209.027344 C 61.027344 215.042969 57.152344 221.359375 53.859375 227.988281 C 47.3125 241.21875 42.855469 255.613281 42.03125 270.285156 C 41.332031 284.839844 43.898438 300.089844 52.609375 311.796875 C 61.15625 323.59375 75.730469 330.484375 90.566406 330.21875 C 105.550781 329.96875 119.96875 324.253906 133.691406 318 L 134.019531 318.667969 "/><path style=" stroke:none;fill-rule:nonzero;fill:#db12d3;fill-opacity:1;" d="M 137.011719 320.582031 C 123.304688 329.300781 108.175781 336.300781 91.765625 339.125 C 83.574219 340.453125 75.035156 340.382812 66.777344 338.519531 C 58.523438 336.660156 50.675781 332.835938 44 327.574219 C 30.328125 317.261719 21.96875 301.21875 18.203125 284.933594 C 14.386719 268.496094 14.753906 251.453125 17.695312 235.039062 C 20.964844 218.730469 26.324219 202.839844 34.039062 188.054688 C 41.757812 173.277344 52.011719 159.859375 63.914062 148.242188 C 87.828125 125.019531 118.949219 109.753906 151.457031 104.011719 C 183.964844 97.832031 217.761719 100.664062 249.132812 110.113281 C 280.636719 119.449219 309.902344 134.722656 337.601562 151.628906 C 351.515625 159.957031 365.453125 168.195312 380.1875 174.734375 C 394.878906 181.21875 410.523438 185.90625 426.582031 186.480469 C 442.644531 187.089844 458.707031 183.707031 473.84375 178.148438 C 489.023438 172.578125 503.398438 164.917969 517.257812 156.53125 L 517.6875 157.226562 C 503.945312 165.859375 489.648438 173.792969 474.414062 179.671875 C 459.234375 185.546875 442.976562 189.277344 426.515625 188.929688 C 410.035156 188.621094 393.929688 184.078125 378.886719 177.734375 C 363.808594 171.335938 349.597656 163.25 335.53125 155.15625 C 307.6875 138.632812 278.644531 123.972656 247.652344 115.210938 C 216.796875 106.347656 184.03125 104.070312 152.699219 110.4375 C 121.363281 116.488281 91.960938 131.589844 69.585938 154.007812 C 47.011719 176.230469 32.019531 205.589844 25.714844 236.597656 C 22.574219 252.007812 21.882812 268.097656 25.089844 283.421875 C 28.214844 298.675781 35.613281 313.179688 47.601562 323.160156 C 53.464844 328.171875 60.386719 331.921875 67.910156 333.933594 C 75.414062 335.960938 83.40625 336.34375 91.277344 335.429688 C 107.117188 333.691406 122.347656 327.488281 136.59375 319.882812 L 137.011719 320.582031 "/><path style=" stroke:none;fill-rule:nonzero;fill:#db12d3;fill-opacity:1;" d="M 753.90625 537.199219 C 718.738281 586.851562 685.664062 603.273438 644.300781 621.277344 C 627.101562 628.753906 605.796875 631.671875 586.527344 631.589844 C 567.265625 631.492188 548.9375 631.015625 534.648438 616.238281 C 523.546875 604.753906 527.605469 588.359375 538.769531 577.816406 C 540.277344 576.398438 543.039062 574.515625 544.992188 573.015625 C 545.957031 572.28125 547.507812 571.160156 548.75 570.246094 C 565.777344 557.742188 583.644531 542.964844 599.542969 529.941406 C 605.863281 524.765625 615.628906 518.234375 622.535156 516.671875 C 631.578125 514.609375 637.6875 516.78125 645.894531 520.503906 C 654.097656 524.21875 687.128906 541.398438 696.910156 543.246094 C 734.234375 550.308594 737.261719 545.773438 753.90625 537.199219 "/><path style=" stroke:none;fill-rule:nonzero;fill:#a23df6;fill-opacity:1;" d="M 713.175781 545.042969 C 694.539062 566.472656 669.355469 582.8125 639.554688 593.886719 C 627.164062 598.5 613.421875 599.570312 600.292969 598.765625 C 587.757812 598.027344 574.128906 596.429688 565.597656 586.21875 C 558.957031 578.277344 560.53125 565.734375 568.941406 559.222656 C 570.070312 558.332031 571.492188 557.296875 573.066406 556.175781 C 573.835938 555.613281 574.691406 555.023438 575.546875 554.398438 C 587.375 545.933594 597.417969 537.378906 608.054688 528.109375 C 612.289062 524.441406 616.285156 522.128906 620.316406 521.25 C 625.597656 520.058594 630.953125 521.25 637.0625 524.765625 C 643.042969 528.203125 678.804688 549.304688 694.898438 547.945312 C 700.855469 547.414062 707.132812 546.078125 713.175781 545.042969 "/><path style=" stroke:none;fill-rule:nonzero;fill:#db12d3;fill-opacity:1;" d="M 631.644531 519.597656 C 632.640625 523.773438 634.777344 525.527344 637.808594 527.347656 C 704.054688 567.265625 741.542969 571.210938 782.082031 500.550781 C 790.929688 485.136719 792.179688 468.078125 790.921875 452.460938 C 789.9375 440.257812 782.75 424.804688 771.839844 436.390625 C 765.449219 443.183594 758.398438 451.648438 751.296875 456.714844 C 738.984375 465.507812 731.898438 473.859375 716.871094 477.078125 C 706.542969 479.292969 695.8125 478.925781 684.484375 477.804688 C 673.164062 476.691406 663.527344 467.398438 655.039062 460.683594 C 650.632812 457.199219 649.871094 452.144531 645.277344 459.800781 C 636.078125 475.136719 627.128906 500.667969 631.644531 519.597656 "/><path style=" stroke:none;fill-rule:nonzero;fill:#a23df6;fill-opacity:1;" d="M 645.167969 498.839844 C 645.398438 501.535156 647.460938 505.675781 649.605469 507.335938 C 696.78125 543.71875 728.960938 530.128906 762.179688 485.824219 C 769.425781 476.164062 775.09375 469.890625 773.84375 457.347656 C 772.867188 447.539062 770.242188 441.035156 760.410156 450.03125 C 754.632812 455.316406 744.957031 462.113281 737.5625 464.910156 C 724.734375 469.769531 718.242188 470.113281 703.328125 470.472656 C 693.066406 470.71875 672.417969 470.292969 661.40625 466.441406 C 655.699219 464.449219 655.015625 463.207031 652.335938 468.574219 C 646.980469 479.3125 644.113281 486.617188 645.167969 498.839844 "/><g clip-rule="nonzero" clip-path="url(#f1ba4cf002)"><path style=" stroke:none;fill-rule:nonzero;fill:#db12d3;fill-opacity:1;" d="M 770.660156 447.402344 C 802.261719 417.265625 802.070312 372.847656 781.269531 327.480469 C 776.796875 317.726562 770.394531 308.980469 762.675781 301.542969 C 754.957031 294.117188 743.105469 290.105469 739.984375 299.472656 C 729.039062 350.445312 704.945312 375.628906 663.605469 393.625 C 651.207031 399.023438 644.429688 397.429688 632.519531 399.640625 C 628.507812 400.382812 620.402344 399.75 619.632812 403.414062 C 618.460938 408.992188 621.242188 421.089844 624.425781 425.832031 C 648.050781 460.972656 666.140625 481.332031 703.796875 479.125 C 729.40625 477.625 752.957031 464.292969 770.660156 447.402344 "/></g><path style=" stroke:none;fill-rule:nonzero;fill:#a23df6;fill-opacity:1;" d="M 771.019531 433.761719 C 778.054688 427.441406 783.367188 419.082031 786.070312 408.539062 C 793.746094 378.582031 780.816406 343.875 762.035156 320.515625 C 757.558594 314.945312 741.292969 303.101562 737.972656 315.988281 C 725.171875 338.328125 708.203125 354.296875 695.847656 366.070312 C 687.417969 374.105469 650.632812 392.074219 650.242188 395.019531 C 649.640625 399.484375 651.898438 404.140625 654.699219 408.179688 C 675.398438 438.152344 694.5625 448.925781 724.1875 449.320312 C 741.789062 449.558594 758.9375 444.65625 771.019531 433.761719 "/><path style=" stroke:none;fill-rule:nonzero;fill:#db12d3;fill-opacity:1;" d="M 608.074219 400.648438 C 626.496094 403.292969 644.875 405.296875 662.476562 396.523438 C 699.167969 378.230469 726.582031 350.796875 741.515625 312.515625 C 752.726562 283.773438 742.414062 258.042969 715.511719 243.015625 C 693.46875 230.710938 669.398438 221.640625 644.378906 217.839844 C 632.269531 216.003906 620.300781 215.738281 608.105469 216.445312 C 604.4375 216.660156 592.429688 216.164062 590.667969 220.898438 C 589.28125 224.609375 595.339844 229.058594 597.597656 231.003906 C 619.53125 265.015625 623.714844 314.15625 606.710938 350.050781 C 598.085938 368.269531 592.089844 376.9375 574.289062 386.023438 C 567.871094 388.660156 596.605469 398.996094 608.074219 400.648438 "/><path style=" stroke:none;fill-rule:nonzero;fill:#a23df6;fill-opacity:1;" d="M 619.769531 365.085938 C 635.597656 368.773438 652.535156 370.707031 666.582031 364.28125 C 697.105469 350.308594 707.691406 342.199219 718.191406 309.101562 C 726.070312 284.269531 715.5625 260.761719 691.425781 245.738281 C 676.339844 236.359375 666.523438 231.617188 654.140625 227.253906 C 637.925781 221.519531 620.335938 217.867188 603.074219 218.550781 C 601.175781 218.621094 588.117188 219.722656 591.113281 224.226562 C 612.164062 255.816406 619.890625 306.308594 612.367188 331.628906 C 610.851562 336.710938 594.964844 352.046875 591.59375 356.257812 C 593.773438 358.113281 612.589844 363.410156 619.769531 365.085938 "/><path style=" stroke:none;fill-rule:nonzero;fill:#db12d3;fill-opacity:1;" d="M 604.921875 362.410156 C 599.859375 372.273438 592.242188 380 583.601562 385.125 C 578.21875 388.320312 570.507812 391.714844 555.269531 388.925781 C 546.539062 387.335938 466.78125 369.886719 453.476562 364.417969 C 473.21875 311.699219 476.632812 266.144531 454.726562 231.507812 C 469.761719 225.113281 541.527344 212.492188 564.03125 210.980469 C 586.535156 209.472656 602.570312 228.367188 612.179688 250.273438 C 628.472656 287.289062 622.996094 327.308594 604.921875 362.410156 "/><path style=" stroke:none;fill-rule:nonzero;fill:#a23df6;fill-opacity:1;" d="M 584.515625 330.917969 C 580.375 339.152344 574.171875 345.59375 567.121094 349.871094 C 562.730469 352.535156 556.449219 355.359375 544.015625 353.039062 C 536.898438 351.703125 480.328125 342.101562 469.476562 337.542969 C 491.042969 294.398438 493.695312 270.019531 462.136719 233.6875 C 474.398438 228.359375 525.6875 219.585938 544.035156 218.328125 C 562.386719 217.070312 575.460938 232.824219 583.300781 251.09375 C 596.582031 281.964844 599.25 301.648438 584.515625 330.917969 "/><path style=" stroke:none;fill-rule:nonzero;fill:#db12d3;fill-opacity:1;" d="M 397.925781 381.121094 C 350.660156 385.296875 310.828125 375.261719 270.824219 363.117188 C 228.449219 350.25 199.527344 347.117188 162.8125 335.769531 C 157.675781 334.1875 160.097656 330.980469 162.8125 330.550781 C 179.546875 327.949219 196.40625 326.246094 200.257812 324.484375 C 148.101562 325.460938 111.976562 316.082031 99.578125 314.164062 C 96.617188 313.703125 90.054688 311.171875 90.207031 309.117188 C 90.335938 307.507812 91.660156 306.300781 95.589844 305.609375 C 98.550781 305.078125 99.390625 304.992188 100.902344 304.734375 C 124.074219 300.84375 144.082031 295.761719 166.664062 289.273438 C 164.300781 288.984375 161.84375 288.742188 159.535156 288.359375 C 142.941406 285.613281 126.4375 280.992188 110.203125 277.535156 C 108.167969 277.105469 107.304688 275.746094 109.1875 275.351562 C 116.664062 273.785156 123.210938 273.46875 130.269531 272.664062 C 154.726562 269.875 151.808594 271.972656 182.234375 266.828125 C 247.457031 255.816406 331.414062 230.085938 402.964844 221.984375 C 425.753906 219.398438 449.027344 224.902344 467.355469 239.515625 C 479.480469 249.183594 487.429688 262.292969 488.609375 279.046875 C 493.027344 341.839844 458.925781 375.738281 397.925781 381.121094 "/><path style=" stroke:none;fill-rule:nonzero;fill:#a23df6;fill-opacity:1;" d="M 383.730469 352.738281 C 341.289062 356.503906 300.320312 352.449219 262.953125 343.730469 C 236.546875 337.558594 225.53125 340.8125 203.933594 338.054688 C 193.070312 336.660156 174.441406 333.253906 173.242188 329.472656 C 172.960938 328.566406 197.542969 326.445312 208.597656 321.199219 C 210.574219 320.257812 209.574219 319.085938 207.390625 318.90625 C 187.796875 317.3125 170.589844 316.585938 148.703125 314.414062 C 128.851562 312.4375 98.035156 306.617188 96.582031 306.054688 C 96.128906 305.566406 97.351562 305.378906 97.421875 305.34375 C 98.171875 305.148438 105.941406 303.949219 109.621094 302.871094 C 134.421875 296.941406 141.710938 296.375 162.460938 290.230469 C 172.472656 287.261719 176.972656 285.371094 186.058594 282.539062 C 167.578125 281.1875 150.53125 276.457031 132.253906 273.460938 C 131.28125 273.308594 129.542969 273.503906 127.199219 273.1875 C 161.347656 269.046875 159.851562 271.363281 201.386719 262.78125 C 254.898438 251.734375 339.507812 228.382812 403.335938 221.804688 C 423.664062 219.714844 450.269531 225.542969 467.398438 239.011719 C 469.667969 244.394531 471.136719 248.613281 471.085938 254.652344 C 470.632812 311.554688 449.105469 346.9375 383.730469 352.738281 "/><path style=" stroke:none;fill-rule:nonzero;fill:#44d9d8;fill-opacity:1;" d="M 446.332031 245.875 C 445.203125 245.1875 430.449219 240.125 413.285156 240.980469 C 407.226562 241.289062 398.867188 241.714844 393.050781 242.425781 C 381.453125 243.929688 324.773438 252.292969 313.144531 254.617188 C 306.890625 255.867188 300.660156 257.304688 294.492188 258.929688 C 288.980469 260.386719 282.691406 261.003906 277.78125 264.125 C 276.324219 265.050781 275.09375 266.582031 275.152344 268.300781 C 275.238281 270.472656 277.277344 272.1875 279.242188 272.726562 C 284.632812 274.214844 291.078125 274.109375 296.648438 274.523438 C 302.894531 274.984375 309.148438 275.25 315.40625 275.394531 C 342.667969 276.019531 415.003906 268.078125 441.617188 261.796875 C 445.347656 260.925781 448.941406 259.46875 450.183594 255.515625 C 451.363281 251.769531 449.644531 247.875 446.332031 245.875 "/><path style=" stroke:none;fill-rule:nonzero;fill:#231815;fill-opacity:1;" d="M 232.496094 283.789062 C 232.496094 295.074219 223.351562 304.214844 212.074219 304.214844 C 200.796875 304.214844 191.648438 295.074219 191.648438 283.789062 C 191.648438 272.511719 200.796875 263.363281 212.074219 263.363281 C 223.351562 263.363281 232.496094 272.511719 232.496094 283.789062 "/><path style=" stroke:none;fill-rule:nonzero;fill:#ffffff;fill-opacity:1;" d="M 215.332031 274.027344 C 215.332031 278.242188 211.910156 281.675781 207.683594 281.675781 C 203.464844 281.675781 200.042969 278.242188 200.042969 274.027344 C 200.042969 269.796875 203.464844 266.375 207.683594 266.375 C 211.910156 266.375 215.332031 269.796875 215.332031 274.027344 "/><path style=" stroke:none;fill-rule:nonzero;fill:#db12d3;fill-opacity:1;" d="M 536.289062 593.671875 C 515.34375 606.414062 450.988281 584.59375 430.003906 575.402344 C 409.03125 566.222656 401.082031 555.765625 410.164062 534.675781 C 412.078125 530.222656 414.484375 525.902344 418.820312 523.429688 C 439.605469 511.957031 462.179688 528.179688 479.71875 538.933594 C 487.6875 543.820312 551.359375 585.339844 536.289062 593.671875 "/><path style=" stroke:none;fill-rule:nonzero;fill:#a23df6;fill-opacity:1;" d="M 538.523438 589.199219 C 516.214844 595.828125 467.722656 573.035156 447.753906 563.226562 C 428.199219 553.191406 412.445312 540.355469 420.882812 525.628906 C 420.933594 525.5625 420.953125 525.484375 421.003906 525.414062 C 421.953125 523.753906 423.132812 522.136719 424.625 520.792969 C 424.632812 520.75 424.667969 520.761719 424.675781 520.726562 C 444.867188 515.609375 463.378906 528.847656 479.738281 538.953125 C 499.171875 551.34375 518.132812 564.246094 533.910156 581.28125 C 535.820312 583.4375 537.898438 586.324219 538.523438 589.199219 "/><path style=" stroke:none;fill-rule:nonzero;fill:#44d9d8;fill-opacity:1;" d="M 538.523438 589.15625 C 537.648438 589.503906 535.863281 587.167969 533.757812 584.457031 C 521.496094 572.058594 501.890625 558.308594 481.183594 544.917969 C 465.925781 535.015625 435.894531 516.910156 420.953125 522.738281 C 416.46875 524.484375 412.085938 532.355469 408.972656 537.609375 C 419.402344 503.253906 444.191406 510.605469 478.386719 533.253906 C 497.597656 545.984375 518.277344 563.570312 534.046875 580.613281 C 535.980469 582.773438 538.179688 585.996094 538.523438 589.15625 "/><path style=" stroke:none;fill-rule:nonzero;fill:#db12d3;fill-opacity:1;" d="M 541.210938 607.585938 C 528.21875 631.324219 454.65625 645.980469 429.542969 648.777344 C 404.429688 651.578125 391.054688 645.964844 388.09375 620.804688 C 387.460938 615.484375 387.382812 610.023438 390.164062 605.277344 C 403.703125 582.839844 434.234375 585.878906 456.933594 586.476562 C 467.234375 586.757812 551.007812 591.3125 541.210938 607.585938 "/><path style=" stroke:none;fill-rule:nonzero;fill:#a23df6;fill-opacity:1;" d="M 540.867188 602.074219 C 523.207031 620.722656 464.277344 625.699219 439.785156 627.34375 C 415.554688 628.550781 393.410156 624.964844 393.347656 606.234375 C 393.367188 606.140625 393.332031 606.054688 393.347656 605.960938 C 393.339844 603.855469 393.570312 601.65625 394.253906 599.550781 C 394.238281 599.507812 394.28125 599.492188 394.265625 599.457031 C 410.746094 583.421875 435.738281 585.859375 456.949219 586.492188 C 482.363281 587.613281 507.617188 589.472656 532.097656 597.0625 C 535.109375 598.0625 538.683594 599.679688 540.867188 602.074219 "/><path style=" stroke:none;fill-rule:nonzero;fill:#44d9d8;fill-opacity:1;" d="M 540.839844 602.042969 C 540.207031 602.855469 537.207031 601.613281 533.695312 600.175781 C 515.136719 595.09375 488.816406 592.773438 461.632812 591.398438 C 441.582031 590.351562 402.878906 589.617188 391.816406 603.425781 C 388.496094 607.578125 388.652344 617.511719 388.582031 624.253906 C 379.589844 585.664062 407.339844 579.015625 452.519531 581.796875 C 477.90625 583.351562 507.375 588.761719 531.855469 596.34375 C 534.894531 597.335938 538.78125 599.210938 540.839844 602.042969 "/><g clip-rule="nonzero" clip-path="url(#0cbad6e95d)"><path style=" stroke:none;fill-rule:nonzero;fill:#db12d3;fill-opacity:1;" d="M 547.78125 618.785156 C 548.347656 643.300781 497.261719 688.132812 478.820312 701.703125 C 460.382812 715.273438 447.351562 716.925781 433.625 698.527344 C 430.722656 694.644531 428.191406 690.398438 428.21875 685.410156 C 428.671875 661.671875 454.007812 650.226562 472.097656 640.410156 C 480.3125 635.960938 548.097656 601.578125 547.78125 618.785156 "/></g><path style=" stroke:none;fill-rule:nonzero;fill:#a23df6;fill-opacity:1;" d="M 545.015625 614.621094 C 539.609375 637.261719 495.628906 667.859375 477.152344 680.25 C 458.679688 692.160156 439.683594 699.390625 431.152344 684.71875 C 431.117188 684.640625 431.058594 684.589844 431.03125 684.503906 C 430.066406 682.851562 429.253906 681.027344 428.832031 679.0625 C 428.808594 679.035156 428.824219 679.007812 428.800781 678.984375 C 434.464844 658.933594 455.1875 649.53125 472.121094 640.410156 C 492.5625 629.773438 513.21875 619.804688 535.871094 614.664062 C 538.683594 614.082031 542.226562 613.730469 545.015625 614.621094 "/><path style=" stroke:none;fill-rule:nonzero;fill:#44d9d8;fill-opacity:1;" d="M 544.984375 614.601562 C 544.855469 615.535156 541.9375 615.921875 538.53125 616.382812 C 521.667969 620.796875 499.957031 630.902344 478.007812 642.136719 C 461.804688 650.40625 431.101562 667.355469 428.679688 683.210938 C 427.953125 687.96875 432.582031 695.695312 435.578125 701.019531 C 411.035156 674.808594 429.800781 657.019531 466.507812 638.734375 C 487.140625 628.457031 512.707031 619.34375 535.355469 614.199219 C 538.1875 613.609375 542.082031 613.320312 544.984375 614.601562 "/><path style=" stroke:none;fill-rule:nonzero;fill:#44d9d8;fill-opacity:1;" d="M 612.609375 583.730469 C 611.804688 584.292969 611.179688 584.730469 610.632812 585.117188 C 610.511719 585.210938 610.375 585.320312 610.167969 585.476562 C 606.421875 588.332031 606.832031 590.097656 607.808594 593.535156 C 608.792969 596.984375 612.8125 598.722656 616.3125 597.148438 C 640.203125 586.40625 662.183594 576.0625 682.953125 558.820312 C 685.453125 556.742188 687.925781 554.621094 690.363281 552.464844 C 681.933594 550.042969 672.992188 546.378906 663.410156 541.613281 C 649.703125 556.734375 621.882812 577.183594 612.609375 583.730469 "/><path style=" stroke:none;fill-rule:nonzero;fill:#44d9d8;fill-opacity:1;" d="M 754.785156 460.289062 C 740.675781 470.085938 724.324219 477.148438 706.929688 478.839844 C 706.636719 479.5 706.371094 480.167969 706.074219 480.835938 C 701.519531 491 695.113281 501.859375 688.769531 510.859375 C 685.855469 515.019531 682.078125 519.632812 678.273438 524.148438 C 692.460938 529.496094 705.304688 529.472656 717.4375 524.84375 C 724.511719 516.414062 731.066406 507.445312 736.894531 497.777344 C 744.074219 485.867188 750.132812 473.332031 754.785156 460.289062 "/><path style=" stroke:none;fill-rule:nonzero;fill:#44d9d8;fill-opacity:1;" d="M 760.503906 441.0625 C 762.222656 433.925781 763.53125 426.671875 764.355469 419.292969 C 765.902344 405.253906 765.253906 392.1875 763.464844 378.273438 C 761.667969 364.359375 757.800781 350.265625 751.5625 337.550781 C 748.0625 330.414062 743.980469 323.636719 739.480469 317.175781 C 733.054688 332.246094 724.640625 345.570312 714.417969 357.242188 C 713.628906 358.214844 712.832031 359.183594 712.011719 360.125 C 716.171875 368.457031 718.464844 376.671875 720.25 386.09375 C 722.210938 396.414062 723.460938 406.636719 722.929688 417.695312 C 722.417969 428.425781 720.550781 438.835938 717.746094 449.046875 C 719.816406 449.191406 721.921875 449.292969 724.101562 449.320312 C 737.109375 449.5 749.851562 446.847656 760.503906 441.0625 "/><path style=" stroke:none;fill-rule:nonzero;fill:#44d9d8;fill-opacity:1;" d="M 720.628906 294.828125 C 713.175781 287.546875 705.019531 281.042969 696.300781 275.464844 C 672.933594 260.507812 647.183594 253.496094 621.96875 247.925781 C 617.871094 247.019531 613.855469 246.257812 609.886719 245.546875 C 610.65625 247.105469 611.402344 248.671875 612.09375 250.273438 C 617.585938 262.765625 620.558594 275.589844 621.445312 288.460938 C 639.125 294.347656 656.367188 301.59375 671.273438 312.367188 C 683.390625 321.121094 693.058594 330.945312 701.203125 342.324219 C 708.210938 334.617188 713.183594 324.621094 718.105469 309.101562 C 719.636719 304.273438 720.449219 299.5 720.628906 294.828125 "/><path style=" stroke:none;fill-rule:nonzero;fill:#44d9d8;fill-opacity:1;" d="M 578.628906 241.851562 C 569.15625 241.277344 559.675781 241.167969 549.851562 241.449219 C 525.355469 242.152344 503.894531 246.574219 480.234375 252.238281 C 479.882812 252.324219 479.617188 252.539062 479.300781 252.660156 C 482.691406 257.800781 485.324219 263.613281 487.078125 270.074219 C 508.070312 270.472656 528.742188 270.875 549.296875 273.042969 C 560.300781 274.207031 570.628906 275.855469 581.289062 278.011719 C 585.175781 278.800781 589.085938 279.640625 592.976562 280.519531 C 591.242188 271.492188 587.902344 261.996094 583.214844 251.09375 C 581.847656 247.902344 580.3125 244.804688 578.628906 241.851562 "/><path style=" stroke:none;fill-rule:nonzero;fill:#db12d3;fill-opacity:1;" d="M 340.621094 376.722656 C 327.007812 381.585938 313.257812 384.808594 299.4375 387.445312 C 292.328125 388.867188 286.191406 389.945312 279.78125 391.886719 C 273.476562 393.691406 267.214844 395.632812 261.273438 398.382812 C 258.203125 399.484375 255.285156 401.007812 252.289062 402.34375 C 249.378906 403.882812 246.472656 405.40625 243.597656 407.058594 C 237.710938 410.128906 232.222656 413.980469 226.507812 417.667969 C 215.238281 425.273438 204.269531 433.910156 192.238281 441.902344 L 192.136719 441.960938 C 191.921875 442.105469 191.621094 442.046875 191.476562 441.824219 C 191.347656 441.644531 191.375 441.394531 191.527344 441.242188 C 200.992188 430.871094 210.796875 420.722656 221.683594 411.753906 C 227.117188 407.273438 232.773438 403.035156 238.777344 399.304688 C 244.726562 395.507812 250.996094 392.1875 257.507812 389.441406 C 270.542969 383.894531 284.601562 380.992188 298.589844 379.832031 L 340.527344 375.765625 C 340.792969 375.730469 341.023438 375.929688 341.050781 376.195312 C 341.066406 376.417969 340.9375 376.613281 340.734375 376.691406 L 340.621094 376.722656 "/><path style=" stroke:none;fill-rule:nonzero;fill:#db12d3;fill-opacity:1;" d="M 379.878906 382.15625 C 367.625 389.464844 354.945312 395.113281 342.785156 401.042969 C 336.78125 404.164062 330.703125 406.914062 325.015625 410.265625 C 319.238281 413.40625 313.617188 416.726562 308.40625 420.5 C 303.101562 423.964844 298.171875 428.125 293.3125 432.496094 C 288.324219 436.757812 283.761719 441.601562 278.867188 446.300781 C 269.335938 455.890625 259.835938 466.160156 248.695312 475.085938 L 248.601562 475.160156 C 248.398438 475.324219 248.097656 475.289062 247.933594 475.085938 C 247.796875 474.914062 247.796875 474.664062 247.925781 474.503906 C 256.261719 463.480469 264.210938 452.152344 272.996094 441.429688 C 281.769531 430.726562 291.429688 420.542969 302.878906 412.507812 C 314.394531 404.636719 327.09375 398.75 340.066406 393.890625 C 353.054688 389.027344 366.351562 385.160156 379.597656 381.226562 C 379.855469 381.15625 380.109375 381.292969 380.195312 381.550781 C 380.257812 381.765625 380.164062 381.988281 379.984375 382.097656 L 379.878906 382.15625 "/><path style=" stroke:none;fill-rule:nonzero;fill:#db12d3;fill-opacity:1;" d="M 432.238281 374.363281 C 421.535156 383.457031 410.101562 391.082031 398.414062 398.175781 C 392.414062 401.925781 387.179688 404.824219 382.113281 408.71875 C 377.089844 412.515625 372.152344 416.417969 367.722656 420.988281 C 363.089844 425.328125 358.734375 430.023438 354.585938 435.023438 C 350.230469 439.855469 346.335938 445.152344 342.152344 450.355469 C 333.980469 460.878906 326.007812 471.988281 316.558594 482.382812 L 316.484375 482.46875 C 316.292969 482.664062 315.996094 482.683594 315.808594 482.503906 C 315.636719 482.347656 315.601562 482.109375 315.703125 481.929688 C 322.070312 469.890625 328.429688 457.808594 335.71875 446.257812 C 342.949219 434.679688 351.171875 423.617188 360.988281 414.007812 C 365.898438 409.207031 371.359375 405.003906 377.003906 401.121094 C 382.746094 397.355469 388.90625 394.214844 395.035156 391.304688 L 431.8125 373.488281 C 432.050781 373.378906 432.332031 373.472656 432.453125 373.710938 C 432.546875 373.917969 432.488281 374.148438 432.332031 374.285156 L 432.238281 374.363281 "/><path style=" stroke:none;fill-rule:nonzero;fill:#db12d3;fill-opacity:1;" d="M 588.785156 483.914062 C 590.410156 477.796875 593.089844 472.652344 596.136719 467.863281 C 596.878906 466.621094 597.597656 465.464844 598.53125 464.3125 C 599.5 463.097656 600.449219 461.828125 601.519531 460.675781 C 603.664062 458.371094 606.15625 456.414062 608.671875 454.523438 C 611.339844 452.855469 614.078125 451.339844 616.921875 450.132812 C 619.839844 449.105469 622.679688 448.054688 625.683594 447.601562 C 631.605469 446.488281 637.5 446.402344 643.660156 447.738281 L 643.867188 447.78125 C 644.078125 447.824219 644.214844 448.035156 644.171875 448.25 C 644.140625 448.394531 644.027344 448.507812 643.890625 448.550781 C 633.230469 451.691406 622.457031 455.105469 613.421875 461.503906 C 608.78125 464.523438 604.804688 468.308594 600.996094 472.414062 L 589.402344 484.496094 C 589.246094 484.652344 589 484.660156 588.835938 484.503906 C 588.734375 484.402344 588.691406 484.25 588.734375 484.121094 L 588.785156 483.914062 "/><path style=" stroke:none;fill-rule:nonzero;fill:#db12d3;fill-opacity:1;" d="M 567.511719 460.890625 C 568.804688 454.273438 571.242188 448.53125 574.078125 443.089844 C 574.753906 441.703125 575.453125 440.371094 576.300781 439.070312 C 577.214844 437.683594 578.074219 436.238281 579.089844 434.902344 C 581.109375 432.222656 583.53125 429.863281 585.960938 427.542969 C 588.597656 425.464844 591.300781 423.476562 594.175781 421.835938 C 597.144531 420.355469 600.027344 418.839844 603.160156 417.933594 C 609.3125 415.90625 615.585938 414.949219 622.285156 415.375 L 622.480469 415.382812 C 622.695312 415.402344 622.867188 415.589844 622.859375 415.8125 C 622.839844 415.964844 622.746094 416.09375 622.609375 416.152344 C 617.066406 418.53125 611.539062 420.953125 606.25 423.804688 C 600.96875 426.652344 595.949219 429.980469 591.480469 433.933594 C 586.886719 437.777344 583.019531 442.304688 579.363281 447.136719 L 568.1875 461.402344 C 568.050781 461.574219 567.796875 461.609375 567.625 461.46875 C 567.503906 461.375 567.445312 461.222656 567.480469 461.078125 L 567.511719 460.890625 "/><path style=" stroke:none;fill-rule:nonzero;fill:#db12d3;fill-opacity:1;" d="M 549.289062 453.8125 C 548.304688 447.144531 548.671875 440.917969 549.519531 434.851562 C 549.707031 433.308594 549.910156 431.820312 550.261719 430.316406 C 550.671875 428.699219 551 427.054688 551.511719 425.453125 C 552.523438 422.246094 554.011719 419.21875 555.535156 416.222656 C 557.320312 413.371094 559.195312 410.609375 561.359375 408.09375 C 563.664062 405.707031 565.871094 403.308594 568.523438 401.410156 C 573.648438 397.449219 579.234375 394.445312 585.695312 392.605469 L 585.882812 392.554688 C 586.089844 392.496094 586.3125 392.613281 586.371094 392.828125 C 586.414062 392.980469 586.363281 393.136719 586.261719 393.230469 C 581.828125 397.328125 577.429688 401.460938 573.398438 405.910156 C 569.371094 410.371094 565.757812 415.179688 562.859375 420.398438 C 559.820312 425.558594 557.691406 431.109375 555.859375 436.894531 L 550.089844 454.070312 C 550.023438 454.28125 549.792969 454.394531 549.585938 454.324219 C 549.441406 454.273438 549.339844 454.144531 549.3125 454 L 549.289062 453.8125 "/><path style=" stroke:none;fill-rule:nonzero;fill:#db12d3;fill-opacity:1;" d="M 469.847656 428.484375 C 471.070312 421.859375 473.441406 416.085938 476.210938 410.617188 C 476.878906 409.222656 477.554688 407.878906 478.386719 406.570312 C 479.292969 405.175781 480.121094 403.722656 481.125 402.367188 C 483.117188 399.664062 485.511719 397.285156 487.917969 394.933594 C 490.535156 392.828125 493.214844 390.808594 496.0625 389.132812 C 499.015625 387.625 501.890625 386.066406 505.007812 385.125 C 511.140625 383.03125 517.394531 382.003906 524.105469 382.355469 L 524.292969 382.363281 C 524.515625 382.371094 524.6875 382.558594 524.679688 382.78125 C 524.667969 382.9375 524.574219 383.074219 524.4375 383.125 C 518.917969 385.570312 513.417969 388.0625 508.164062 390.960938 C 502.917969 393.878906 497.9375 397.261719 493.503906 401.265625 C 488.960938 405.160156 485.144531 409.726562 481.535156 414.605469 L 470.523438 428.988281 C 470.394531 429.167969 470.144531 429.203125 469.964844 429.066406 C 469.835938 428.972656 469.785156 428.816406 469.820312 428.679688 L 469.847656 428.484375 "/><path style=" stroke:none;fill-rule:nonzero;fill:#db12d3;fill-opacity:1;" d="M 507.660156 434.671875 C 508.882812 428.039062 511.242188 422.261719 514.015625 416.804688 C 514.683594 415.402344 515.359375 414.058594 516.191406 412.75 C 517.097656 411.351562 517.933594 409.898438 518.9375 408.546875 C 520.929688 405.851562 523.324219 403.464844 525.730469 401.121094 C 528.347656 399.007812 531.019531 396.996094 533.867188 395.308594 C 536.820312 393.804688 539.695312 392.246094 542.820312 391.304688 C 548.945312 389.21875 555.199219 388.183594 561.917969 388.542969 L 562.105469 388.550781 C 562.328125 388.558594 562.492188 388.746094 562.480469 388.96875 C 562.472656 389.121094 562.378906 389.25 562.25 389.3125 C 556.722656 391.757812 551.230469 394.238281 545.96875 397.148438 C 540.722656 400.058594 535.742188 403.445312 531.316406 407.441406 C 526.765625 411.34375 522.949219 415.90625 519.355469 420.78125 L 508.335938 435.175781 C 508.199219 435.347656 507.949219 435.382812 507.769531 435.253906 C 507.648438 435.148438 507.597656 435.003906 507.625 434.859375 L 507.660156 434.671875 "/></g></svg>