<svg xmlns="http://www.w3.org/2000/svg" xmlns:xlink="http://www.w3.org/1999/xlink" width="1080" zoomAndPan="magnify" viewBox="0 0 810 809.999993" height="1080" preserveAspectRatio="xMidYMid meet" version="1.2"><defs><filter x="0%" y="0%" width="100%" filterUnits="objectBoundingBox" id="2592d30937" height="100%"><feColorMatrix values="0 0 0 0 1 0 0 0 0 1 0 0 0 0 1 0 0 0 1 0" type="matrix" in="SourceGraphic"/></filter><clipPath id="c68406da71"><path d="M 0.0390625 1 L 284.679688 1 L 284.679688 370 L 0.0390625 370 Z M 0.0390625 1 "/></clipPath><clipPath id="998e04d775"><rect x="0" width="285" y="0" height="372"/></clipPath><clipPath id="7294ed9933"><path d="M 1 0.398438 L 289 0.398438 L 289 278 L 1 278 Z M 1 0.398438 "/></clipPath><clipPath id="719668b721"><rect x="0" width="290" y="0" height="279"/></clipPath></defs><g id="80559eb2f6"><path style=" stroke:none;fill-rule:nonzero;fill:#44d9d8;fill-opacity:1;" d="M 652.21875 451.367188 C 606.773438 446.921875 618.753906 486.964844 550.761719 544.867188 C 537.945312 555.78125 523.90625 565.292969 508.859375 573.464844 C 520.65625 579.707031 533.703125 585.453125 540.035156 588.019531 C 552.050781 592.890625 576.828125 619.023438 515.652344 634.339844 C 483.386719 642.417969 434.492188 624.121094 407.496094 606.539062 C 402.878906 607.257812 398.230469 607.925781 393.535156 608.484375 C 333.398438 615.617188 295.855469 581.796875 241.460938 562.738281 C 83.160156 500.773438 64.464844 422.996094 56.949219 378.710938 C 49.183594 332.964844 28.417969 310.929688 20.679688 278.355469 C 20.539062 277.769531 20.378906 277.125 20.207031 276.453125 C 19.160156 272.023438 16.710938 260.445312 16.804688 249.105469 C 24.523438 210.570312 87.945312 144.796875 213.355469 172.363281 C 365.640625 205.839844 382.90625 318.003906 434.042969 385.757812 C 485.179688 453.515625 560.144531 444.910156 565.769531 436.789062 C 575.199219 423.183594 564.269531 405.175781 550.796875 394.964844 C 532.183594 380.859375 511.304688 330.167969 528.882812 292.589844 C 546.464844 255.011719 581.113281 222.769531 578.929688 249.851562 C 576.742188 276.933594 596.039062 309.136719 607.21875 320.515625 C 618.046875 331.539062 645.78125 357.070312 636.425781 386.140625 C 646.214844 361.71875 678.117188 351.863281 722.25 348.382812 C 768.058594 344.769531 774.214844 308.644531 783.253906 312.613281 C 792.296875 316.585938 797.085938 328.394531 789.117188 368.039062 C 780.128906 412.742188 709.097656 456.929688 652.21875 451.367188 Z M 652.21875 451.367188 C 606.773438 446.921875 618.753906 486.964844 550.761719 544.867188 C 537.945312 555.78125 523.90625 565.292969 508.859375 573.464844 C 520.65625 579.707031 533.703125 585.453125 540.035156 588.019531 C 552.050781 592.890625 576.828125 619.023438 515.652344 634.339844 C 483.386719 642.417969 434.492188 624.121094 407.496094 606.539062 C 402.878906 607.257812 398.230469 607.925781 393.535156 608.484375 C 333.398438 615.617188 295.855469 581.796875 241.460938 562.738281 C 83.160156 500.773438 64.464844 422.996094 56.949219 378.710938 C 49.183594 332.964844 28.417969 310.929688 20.679688 278.355469 C 20.539062 277.769531 20.378906 277.125 20.207031 276.453125 C 19.160156 272.023438 16.710938 260.445312 16.804688 249.105469 C 24.523438 210.570312 87.945312 144.796875 213.355469 172.363281 C 365.640625 205.839844 382.90625 318.003906 434.042969 385.757812 C 485.179688 453.515625 560.144531 444.910156 565.769531 436.789062 C 575.199219 423.183594 564.269531 405.175781 550.796875 394.964844 C 532.183594 380.859375 511.304688 330.167969 528.882812 292.589844 C 546.464844 255.011719 581.113281 222.769531 578.929688 249.851562 C 576.742188 276.933594 596.039062 309.136719 607.21875 320.515625 C 618.046875 331.539062 645.78125 357.070312 636.425781 386.140625 C 646.214844 361.71875 678.117188 351.863281 722.25 348.382812 C 768.058594 344.769531 774.214844 308.644531 783.253906 312.613281 C 792.296875 316.585938 797.085938 328.394531 789.117188 368.039062 C 780.128906 412.742188 709.097656 456.929688 652.21875 451.367188 Z M 652.21875 451.367188 "/><path style=" stroke:none;fill-rule:nonzero;fill:#fefefe;fill-opacity:1;" d="M 393.535156 608.484375 C 335.269531 614.417969 272.875 608.011719 220.472656 589.652344 C 62.175781 527.6875 28.109375 421.054688 20.59375 376.765625 C 13.003906 332.050781 27.257812 309.757812 20.679688 278.355469 L 20.695312 278.351562 C 20.695312 278.351562 33.957031 239.1875 98.300781 241.558594 C 169.226562 244.171875 248.746094 341.058594 267 432.125 C 285.253906 523.1875 307.507812 583.648438 393.535156 608.484375 Z M 393.535156 608.484375 "/><path style=" stroke:none;fill-rule:nonzero;fill:#fefefe;fill-opacity:1;" d="M 393.535156 608.484375 C 335.269531 614.417969 272.875 608.011719 220.472656 589.652344 C 62.175781 527.6875 28.109375 421.054688 20.59375 376.765625 C 13.003906 332.050781 27.257812 309.757812 20.679688 278.355469 L 20.695312 278.351562 C 20.695312 278.351562 33.957031 239.1875 98.300781 241.558594 C 169.226562 244.171875 248.746094 341.058594 267 432.125 C 285.253906 523.1875 307.507812 583.648438 393.535156 608.484375 Z M 393.535156 608.484375 "/><path style=" stroke:none;fill-rule:nonzero;fill:#f9f1e9;fill-opacity:1;" d="M 360.183594 383.1875 C 344.445312 377.613281 327.125 381.304688 316.425781 412.210938 C 305.722656 443.121094 324.464844 455.371094 337.136719 459.214844 C 349.808594 463.054688 370.890625 460.824219 379.03125 430.515625 C 387.171875 400.203125 373.699219 387.96875 360.183594 383.1875 Z M 360.183594 383.1875 C 344.445312 377.613281 327.125 381.304688 316.425781 412.210938 C 305.722656 443.121094 324.464844 455.371094 337.136719 459.214844 C 349.808594 463.054688 370.890625 460.824219 379.03125 430.515625 C 387.171875 400.203125 373.699219 387.96875 360.183594 383.1875 Z M 360.183594 383.1875 "/><path style=" stroke:none;fill-rule:nonzero;fill:#231f20;fill-opacity:1;" d="M 379.035156 430.835938 C 372.722656 454.324219 358.703125 461.539062 346.730469 460.628906 C 336.433594 455.664062 324.804688 444.378906 332.226562 422.746094 C 340.984375 397.214844 357.386719 395.097656 370.808594 399.886719 C 374.4375 401.183594 377.894531 403.015625 380.726562 405.695312 C 382.757812 411.976562 381.769531 420.65625 379.035156 430.835938 Z M 379.035156 430.835938 "/><g mask="url(#7acb7bff2e)" transform="matrix(1,0,0,1,41,240)"><g clip-path="url(#998e04d775)"><g clip-rule="nonzero" clip-path="url(#c68406da71)"><path style=" stroke:none;fill-rule:nonzero;fill:#44d9d8;fill-opacity:1;" d="M 284.496094 369.871094 C 282.046875 369.730469 279.601562 369.558594 277.15625 369.375 C 220.75 328.832031 194.503906 271.605469 195.128906 191.785156 C 195.46875 147.988281 188.480469 113.394531 181.304688 89.5625 C 183.636719 92.960938 185.90625 96.414062 188.109375 99.921875 C 194.121094 123.214844 199.207031 154.160156 198.914062 191.816406 C 198.28125 272.625 225.636719 329.863281 284.496094 369.871094 Z M 211.945312 359.191406 C 147.257812 307.300781 146.207031 247.824219 144.597656 152.132812 C 143.363281 78.855469 129.441406 42.117188 118.121094 24.25 C 115.078125 22.167969 112.019531 20.21875 108.941406 18.394531 C 119.824219 31.105469 139.359375 65.839844 140.8125 152.195312 C 142.335938 242.730469 143.429688 304.855469 203.445312 357.003906 C 206.261719 357.761719 209.089844 358.496094 211.945312 359.191406 Z M 86.734375 151.316406 C 87.402344 59.941406 62.84375 17.96875 48.867188 1.515625 C 47.136719 1.550781 45.445312 1.613281 43.796875 1.710938 C 56.5 15.769531 83.640625 56.90625 82.949219 151.289062 C 82.480469 214.746094 87.960938 252.941406 101.855469 283.121094 C 110.308594 301.476562 121.988281 317.035156 138.433594 331.277344 C 143.738281 333.984375 149.242188 336.632812 154.90625 339.226562 C 96.222656 296.929688 86.046875 244.757812 86.734375 151.316406 Z M 22.550781 137.238281 C 26.449219 61.484375 13.058594 27.09375 3.726562 12.597656 C 2.558594 13.265625 1.449219 13.949219 0.386719 14.644531 C 9.167969 28.40625 22.625 62.136719 18.773438 137.042969 C 16.585938 179.585938 22.683594 217.769531 36.894531 250.523438 C 37.949219 252.953125 39.050781 255.351562 40.195312 257.722656 C 43.128906 260.988281 46.199219 264.253906 49.417969 267.511719 C 28.960938 231.625 19.9375 188.109375 22.550781 137.238281 Z M 22.550781 137.238281 "/></g></g><mask id="7acb7bff2e"><g filter="url(#2592d30937)"><rect x="0" width="810" y="0" height="809.999993" style="fill:#000000;fill-opacity:0.2;stroke:none;"/></g></mask></g><path style=" stroke:none;fill-rule:nonzero;fill:#db12d3;fill-opacity:1;" d="M 508.859375 573.464844 C 504.417969 570.417969 482.757812 554.941406 466.875 537.148438 C 466.179688 536.367188 466.246094 535.167969 467.027344 534.472656 C 467.804688 533.777344 468.996094 533.847656 469.699219 534.625 C 487.046875 554.0625 511.246094 570.417969 511.496094 570.582031 C 511.75 570.75 512.40625 571.152344 512.546875 571.402344 C 511.386719 572.058594 510.03125 572.828125 508.859375 573.464844 Z M 406.980469 606.617188 C 401.980469 603.722656 369.277344 584.589844 352.691406 569.449219 C 351.917969 568.746094 350.722656 568.800781 350.019531 569.570312 C 349.3125 570.34375 349.367188 571.542969 350.140625 572.246094 C 364.648438 585.488281 390.367188 601.214844 401.003906 607.503906 C 403 607.222656 404.996094 606.925781 406.980469 606.617188 Z M 378.402344 622.304688 C 375.625 619.683594 371.25 615.367188 366.410156 610.3125 C 330.824219 610.132812 291.992188 606.699219 258.59375 600.511719 C 279.386719 624.667969 309.207031 652.503906 338.855469 656.605469 C 401.324219 665.246094 387.828125 631.210938 378.402344 622.304688 Z M 378.402344 622.304688 "/><g mask="url(#01ab81a581)" transform="matrix(1,0,0,1,263,212)"><g clip-path="url(#719668b721)"><g clip-rule="nonzero" clip-path="url(#7294ed9933)"><path style=" stroke:none;fill-rule:nonzero;fill:#db12d3;fill-opacity:1;" d="M 45.390625 47.1875 C 30.339844 26.183594 47.765625 23.054688 57.191406 32.121094 C 74.824219 49.078125 60.441406 68.1875 45.390625 47.1875 Z M 12.539062 1.945312 C 4.417969 -1.933594 -6.285156 3.890625 8.09375 14.34375 C 22.476562 24.796875 27.730469 9.199219 12.539062 1.945312 Z M 20.289062 34.015625 C 13.578125 29.210938 2.96875 32.753906 14.289062 44.503906 C 25.605469 56.257812 32.855469 43.007812 20.289062 34.015625 Z M 236.859375 245.109375 C 256.53125 253.859375 245.324219 263.453125 234.730469 260.914062 C 214.90625 256.160156 217.1875 236.359375 236.859375 245.109375 Z M 280.980469 277.015625 C 289.058594 275.320312 293.621094 265.113281 277.3125 265.5 C 261 265.890625 265.859375 280.191406 280.980469 277.015625 Z M 271.675781 256.320312 C 277.023438 255.777344 280.679688 249.488281 270.097656 248.613281 C 259.515625 247.738281 261.671875 257.328125 271.675781 256.320312 Z M 271.675781 256.320312 "/></g></g><mask id="01ab81a581"><g filter="url(#2592d30937)"><rect x="0" width="810" y="0" height="809.999993" style="fill:#000000;fill-opacity:0.5;stroke:none;"/></g></mask></g></g></svg>